<svg width="763" height="607" viewBox="0 0 763 607" fill="none" xmlns="http://www.w3.org/2000/svg">
<path d="M762.125 533.039H0.875V533.446H762.125V533.039Z" fill="#EBEBEB"/>
<path d="M685.848 559.195H635.423V559.602H685.848V559.195Z" fill="#EBEBEB"/>
<path d="M505.158 563.648H491.927V564.055H505.158V563.648Z" fill="#EBEBEB"/>
<path d="M633.9 544.117H604.683V544.524H633.9V544.117Z" fill="#EBEBEB"/>
<path d="M146.502 546.852H80.7454V547.258H146.502V546.852Z" fill="#EBEBEB"/>
<path d="M169.705 546.852H160.068V547.258H169.705V546.852Z" fill="#EBEBEB"/>
<path d="M343.666 553.695H201.038V554.102H343.666V553.695Z" fill="#EBEBEB"/>
<path d="M361.707 460.493H67.7278C65.4248 460.489 63.2175 459.508 61.5904 457.767C59.9634 456.025 59.0496 453.666 59.0496 451.205V9.70636C59.0696 7.26005 59.9923 4.92097 61.6172 3.1972C63.2421 1.47343 65.4379 0.504191 67.7278 0.5H361.707C364.013 0.5 366.224 1.47852 367.855 3.2203C369.485 4.96208 370.401 7.32444 370.401 9.78769V451.205C370.401 453.668 369.485 456.031 367.855 457.773C366.224 459.514 364.013 460.493 361.707 460.493ZM67.7278 0.825314C65.5257 0.829623 63.4152 1.7672 61.8596 3.43225C60.3039 5.09731 59.4302 7.35378 59.4302 9.70636V451.205C59.4302 453.558 60.3039 455.814 61.8596 457.479C63.4152 459.144 65.5257 460.082 67.7278 460.086H361.707C363.911 460.082 366.023 459.145 367.581 457.48C369.139 455.816 370.016 453.559 370.02 451.205V9.70636C370.016 7.35228 369.139 5.09585 367.581 3.43126C366.023 1.76667 363.911 0.829614 361.707 0.825314H67.7278Z" fill="#EBEBEB"/>
<path d="M691.04 460.493H397.045C394.74 460.489 392.532 459.509 390.902 457.768C389.273 456.027 388.355 453.667 388.351 451.205V9.70636C388.375 7.25857 389.301 4.9195 390.929 3.19618C392.556 1.47286 394.753 0.504145 397.045 0.5H691.04C693.327 0.508465 695.519 1.4796 697.14 3.20291C698.762 4.92622 699.683 7.26286 699.703 9.70636V451.205C699.703 453.663 698.791 456.02 697.167 457.761C695.543 459.502 693.34 460.484 691.04 460.493ZM397.045 0.825314C394.841 0.829614 392.729 1.76667 391.171 3.43126C389.613 5.09585 388.736 7.35228 388.732 9.70636V451.205C388.736 453.559 389.613 455.816 391.171 457.48C392.729 459.145 394.841 460.082 397.045 460.086H691.04C693.243 460.082 695.355 459.145 696.913 457.48C698.471 455.816 699.348 453.559 699.352 451.205V9.70636C699.348 7.35228 698.471 5.09585 696.913 3.43126C695.355 1.76667 693.243 0.829614 691.04 0.825314H397.045Z" fill="#EBEBEB"/>
<path d="M379.764 78.0391H121.67V386.956H379.764V78.0391Z" fill="#EBEBEB"/>
<path d="M379.764 83.0391H126.74V381.498H379.764V83.0391Z" fill="#FAFAFA"/>
<path d="M136.088 241.441V220.475H141.691V206.486H149.167V185.52H151.039V206.486H158.515V220.475H164.117V241.441H174.41V247.427H179.084V270.394H180.012V237.44H182.814V258.406H185.615V208.487H187.488V229.453H194.963V222.475H197.765V193.506H203.383V164.553H205.255V168.539H243.577V156.567H250.108V110.633H252.925V156.567H262.273V168.539H266.003V228.461H285.628V210.488H279.097V207.495H285.628V202.501H304.325V156.567H308.999V149.573H331.425V156.567H334.242V220.475H344.519V249.428H350.121V226.461H354.795V220.475H365.087V199.492H370.69V185.52H377.222V164.553H379.764V381.489H126.74V241.441H136.088Z" fill="#F0F0F0"/>
<path d="M229.265 171.672H226.616V174.502H229.265V171.672Z" fill="#FAFAFA"/>
<path d="M229.265 176.406H226.616V179.236H229.265V176.406Z" fill="#FAFAFA"/>
<path d="M229.265 195.391H226.616V198.221H229.265V195.391Z" fill="#FAFAFA"/>
<path d="M229.265 200.125H226.616V202.955H229.265V200.125Z" fill="#FAFAFA"/>
<path d="M229.265 204.883H226.616V207.713H229.265V204.883Z" fill="#FAFAFA"/>
<path d="M229.265 219.102H226.616V221.932H229.265V219.102Z" fill="#FAFAFA"/>
<path d="M229.265 223.836H226.616V226.666H229.265V223.836Z" fill="#FAFAFA"/>
<path d="M233.467 190.648H230.818V193.479H233.467V190.648Z" fill="#FAFAFA"/>
<path d="M233.467 195.391H230.818V198.221H233.467V195.391Z" fill="#FAFAFA"/>
<path d="M233.467 200.125H230.818V202.955H233.467V200.125Z" fill="#FAFAFA"/>
<path d="M233.467 204.883H230.818V207.713H233.467V204.883Z" fill="#FAFAFA"/>
<path d="M233.467 209.633H230.818V212.463H233.467V209.633Z" fill="#FAFAFA"/>
<path d="M233.467 219.102H230.818V221.932H233.467V219.102Z" fill="#FAFAFA"/>
<path d="M233.467 223.836H230.818V226.666H233.467V223.836Z" fill="#FAFAFA"/>
<path d="M237.669 171.672H235.02V174.502H237.669V171.672Z" fill="#FAFAFA"/>
<path d="M237.669 176.406H235.02V179.236H237.669V176.406Z" fill="#FAFAFA"/>
<path d="M237.669 181.164H235.02V183.994H237.669V181.164Z" fill="#FAFAFA"/>
<path d="M237.669 185.914H235.02V188.744H237.669V185.914Z" fill="#FAFAFA"/>
<path d="M237.669 190.648H235.02V193.479H237.669V190.648Z" fill="#FAFAFA"/>
<path d="M237.669 195.391H235.02V198.221H237.669V195.391Z" fill="#FAFAFA"/>
<path d="M237.669 200.125H235.02V202.955H237.669V200.125Z" fill="#FAFAFA"/>
<path d="M237.669 204.883H235.02V207.713H237.669V204.883Z" fill="#FAFAFA"/>
<path d="M237.669 209.633H235.02V212.463H237.669V209.633Z" fill="#FAFAFA"/>
<path d="M237.669 214.352H235.02V217.182H237.669V214.352Z" fill="#FAFAFA"/>
<path d="M237.669 223.836H235.02V226.666H237.669V223.836Z" fill="#FAFAFA"/>
<path d="M241.887 171.672H239.238V174.502H241.887V171.672Z" fill="#FAFAFA"/>
<path d="M241.887 176.406H239.238V179.236H241.887V176.406Z" fill="#FAFAFA"/>
<path d="M241.887 181.164H239.238V183.994H241.887V181.164Z" fill="#FAFAFA"/>
<path d="M241.887 185.914H239.238V188.744H241.887V185.914Z" fill="#FAFAFA"/>
<path d="M241.887 190.648H239.238V193.479H241.887V190.648Z" fill="#FAFAFA"/>
<path d="M241.887 195.391H239.238V198.221H241.887V195.391Z" fill="#FAFAFA"/>
<path d="M241.887 200.125H239.238V202.955H241.887V200.125Z" fill="#FAFAFA"/>
<path d="M241.887 242.82H239.238V245.651H241.887V242.82Z" fill="#FAFAFA"/>
<path d="M246.089 171.672H243.44V174.502H246.089V171.672Z" fill="#FAFAFA"/>
<path d="M246.089 176.406H243.44V179.236H246.089V176.406Z" fill="#FAFAFA"/>
<path d="M246.089 181.164H243.44V183.994H246.089V181.164Z" fill="#FAFAFA"/>
<path d="M246.089 185.914H243.44V188.744H246.089V185.914Z" fill="#FAFAFA"/>
<path d="M246.089 190.648H243.44V193.479H246.089V190.648Z" fill="#FAFAFA"/>
<path d="M246.089 195.391H243.44V198.221H246.089V195.391Z" fill="#FAFAFA"/>
<path d="M246.089 200.125H243.44V202.955H246.089V200.125Z" fill="#FAFAFA"/>
<path d="M246.089 204.883H243.44V207.713H246.089V204.883Z" fill="#FAFAFA"/>
<path d="M246.089 233.336H243.44V236.166H246.089V233.336Z" fill="#FAFAFA"/>
<path d="M246.089 238.07H243.44V240.901H246.089V238.07Z" fill="#FAFAFA"/>
<path d="M246.089 242.82H243.44V245.651H246.089V242.82Z" fill="#FAFAFA"/>
<path d="M246.089 247.578H243.44V250.408H246.089V247.578Z" fill="#FAFAFA"/>
<path d="M246.089 266.539H243.44V269.369H246.089V266.539Z" fill="#FAFAFA"/>
<path d="M250.291 171.672H247.642V174.502H250.291V171.672Z" fill="#FAFAFA"/>
<path d="M250.291 176.406H247.642V179.236H250.291V176.406Z" fill="#FAFAFA"/>
<path d="M250.291 181.164H247.642V183.994H250.291V181.164Z" fill="#FAFAFA"/>
<path d="M250.291 185.914H247.642V188.744H250.291V185.914Z" fill="#FAFAFA"/>
<path d="M250.291 190.648H247.642V193.479H250.291V190.648Z" fill="#FAFAFA"/>
<path d="M250.291 195.391H247.642V198.221H250.291V195.391Z" fill="#FAFAFA"/>
<path d="M250.291 200.125H247.642V202.955H250.291V200.125Z" fill="#FAFAFA"/>
<path d="M250.291 204.883H247.642V207.713H250.291V204.883Z" fill="#FAFAFA"/>
<path d="M250.291 209.633H247.642V212.463H250.291V209.633Z" fill="#FAFAFA"/>
<path d="M250.291 214.352H247.642V217.182H250.291V214.352Z" fill="#FAFAFA"/>
<path d="M250.291 228.602H247.642V231.432H250.291V228.602Z" fill="#FAFAFA"/>
<path d="M250.291 233.336H247.642V236.166H250.291V233.336Z" fill="#FAFAFA"/>
<path d="M250.291 238.07H247.642V240.901H250.291V238.07Z" fill="#FAFAFA"/>
<path d="M250.291 242.82H247.642V245.651H250.291V242.82Z" fill="#FAFAFA"/>
<path d="M250.291 247.578H247.642V250.408H250.291V247.578Z" fill="#FAFAFA"/>
<path d="M250.291 266.539H247.642V269.369H250.291V266.539Z" fill="#FAFAFA"/>
<path d="M254.493 171.672H251.844V174.502H254.493V171.672Z" fill="#FAFAFA"/>
<path d="M254.493 176.406H251.844V179.236H254.493V176.406Z" fill="#FAFAFA"/>
<path d="M254.493 181.164H251.844V183.994H254.493V181.164Z" fill="#FAFAFA"/>
<path d="M254.493 185.914H251.844V188.744H254.493V185.914Z" fill="#FAFAFA"/>
<path d="M254.493 190.648H251.844V193.479H254.493V190.648Z" fill="#FAFAFA"/>
<path d="M254.493 195.391H251.844V198.221H254.493V195.391Z" fill="#FAFAFA"/>
<path d="M254.493 200.125H251.844V202.955H254.493V200.125Z" fill="#FAFAFA"/>
<path d="M254.493 204.883H251.844V207.713H254.493V204.883Z" fill="#FAFAFA"/>
<path d="M254.493 209.633H251.844V212.463H254.493V209.633Z" fill="#FAFAFA"/>
<path d="M254.493 214.352H251.844V217.182H254.493V214.352Z" fill="#FAFAFA"/>
<path d="M254.493 219.102H251.844V221.932H254.493V219.102Z" fill="#FAFAFA"/>
<path d="M254.493 223.836H251.844V226.666H254.493V223.836Z" fill="#FAFAFA"/>
<path d="M254.493 228.602H251.844V231.432H254.493V228.602Z" fill="#FAFAFA"/>
<path d="M254.493 233.336H251.844V236.166H254.493V233.336Z" fill="#FAFAFA"/>
<path d="M254.493 238.07H251.844V240.901H254.493V238.07Z" fill="#FAFAFA"/>
<path d="M254.493 242.82H251.844V245.651H254.493V242.82Z" fill="#FAFAFA"/>
<path d="M254.493 247.578H251.844V250.408H254.493V247.578Z" fill="#FAFAFA"/>
<path d="M254.493 252.32H251.844V255.151H254.493V252.32Z" fill="#FAFAFA"/>
<path d="M258.71 171.672H256.061V174.502H258.71V171.672Z" fill="#FAFAFA"/>
<path d="M258.71 176.406H256.061V179.236H258.71V176.406Z" fill="#FAFAFA"/>
<path d="M258.71 181.164H256.061V183.994H258.71V181.164Z" fill="#FAFAFA"/>
<path d="M258.71 185.914H256.061V188.744H258.71V185.914Z" fill="#FAFAFA"/>
<path d="M258.71 190.648H256.061V193.479H258.71V190.648Z" fill="#FAFAFA"/>
<path d="M258.71 195.391H256.061V198.221H258.71V195.391Z" fill="#FAFAFA"/>
<path d="M258.71 200.125H256.061V202.955H258.71V200.125Z" fill="#FAFAFA"/>
<path d="M258.71 204.883H256.061V207.713H258.71V204.883Z" fill="#FAFAFA"/>
<path d="M258.71 209.633H256.061V212.463H258.71V209.633Z" fill="#FAFAFA"/>
<path d="M258.71 214.352H256.061V217.182H258.71V214.352Z" fill="#FAFAFA"/>
<path d="M258.71 228.602H256.061V231.432H258.71V228.602Z" fill="#FAFAFA"/>
<path d="M258.71 233.336H256.061V236.166H258.71V233.336Z" fill="#FAFAFA"/>
<path d="M258.71 238.07H256.061V240.901H258.71V238.07Z" fill="#FAFAFA"/>
<path d="M258.71 242.82H256.061V245.651H258.71V242.82Z" fill="#FAFAFA"/>
<path d="M262.912 171.672H260.263V174.502H262.912V171.672Z" fill="#FAFAFA"/>
<path d="M262.912 176.406H260.263V179.236H262.912V176.406Z" fill="#FAFAFA"/>
<path d="M262.912 181.164H260.263V183.994H262.912V181.164Z" fill="#FAFAFA"/>
<path d="M262.912 185.914H260.263V188.744H262.912V185.914Z" fill="#FAFAFA"/>
<path d="M262.912 190.648H260.263V193.479H262.912V190.648Z" fill="#FAFAFA"/>
<path d="M262.912 195.391H260.263V198.221H262.912V195.391Z" fill="#FAFAFA"/>
<path d="M262.912 200.125H260.263V202.955H262.912V200.125Z" fill="#FAFAFA"/>
<path d="M262.912 204.883H260.263V207.713H262.912V204.883Z" fill="#FAFAFA"/>
<path d="M262.912 209.633H260.263V212.463H262.912V209.633Z" fill="#FAFAFA"/>
<path d="M262.912 214.352H260.263V217.182H262.912V214.352Z" fill="#FAFAFA"/>
<path d="M262.912 228.602H260.263V231.432H262.912V228.602Z" fill="#FAFAFA"/>
<path d="M262.912 233.336H260.263V236.166H262.912V233.336Z" fill="#FAFAFA"/>
<path d="M262.912 238.07H260.263V240.901H262.912V238.07Z" fill="#FAFAFA"/>
<path d="M310.262 159.375H307.613V162.205H310.262V159.375Z" fill="#FAFAFA"/>
<path d="M310.262 164.086H307.613V166.916H310.262V164.086Z" fill="#FAFAFA"/>
<path d="M310.262 168.844H307.613V171.674H310.262V168.844Z" fill="#FAFAFA"/>
<path d="M310.262 173.578H307.613V176.408H310.262V173.578Z" fill="#FAFAFA"/>
<path d="M310.262 178.328H307.613V181.158H310.262V178.328Z" fill="#FAFAFA"/>
<path d="M310.262 183.086H307.613V185.916H310.262V183.086Z" fill="#FAFAFA"/>
<path d="M310.262 187.812H307.613V190.643H310.262V187.812Z" fill="#FAFAFA"/>
<path d="M310.262 192.562H307.613V195.393H310.262V192.562Z" fill="#FAFAFA"/>
<path d="M310.262 206.789H307.613V209.619H310.262V206.789Z" fill="#FAFAFA"/>
<path d="M310.262 211.523H307.613V214.354H310.262V211.523Z" fill="#FAFAFA"/>
<path d="M314.479 159.375H311.83V162.205H314.479V159.375Z" fill="#FAFAFA"/>
<path d="M314.479 164.086H311.83V166.916H314.479V164.086Z" fill="#FAFAFA"/>
<path d="M314.479 168.844H311.83V171.674H314.479V168.844Z" fill="#FAFAFA"/>
<path d="M314.479 173.578H311.83V176.408H314.479V173.578Z" fill="#FAFAFA"/>
<path d="M314.479 178.328H311.83V181.158H314.479V178.328Z" fill="#FAFAFA"/>
<path d="M314.479 183.086H311.83V185.916H314.479V183.086Z" fill="#FAFAFA"/>
<path d="M314.479 187.812H311.83V190.643H314.479V187.812Z" fill="#FAFAFA"/>
<path d="M314.479 192.562H311.83V195.393H314.479V192.562Z" fill="#FAFAFA"/>
<path d="M314.479 211.523H311.83V214.354H314.479V211.523Z" fill="#FAFAFA"/>
<path d="M318.682 159.375H316.032V162.205H318.682V159.375Z" fill="#FAFAFA"/>
<path d="M318.682 164.086H316.032V166.916H318.682V164.086Z" fill="#FAFAFA"/>
<path d="M318.682 168.844H316.032V171.674H318.682V168.844Z" fill="#FAFAFA"/>
<path d="M318.682 173.578H316.032V176.408H318.682V173.578Z" fill="#FAFAFA"/>
<path d="M318.682 178.328H316.032V181.158H318.682V178.328Z" fill="#FAFAFA"/>
<path d="M318.682 183.086H316.032V185.916H318.682V183.086Z" fill="#FAFAFA"/>
<path d="M318.682 187.812H316.032V190.643H318.682V187.812Z" fill="#FAFAFA"/>
<path d="M318.682 192.562H316.032V195.393H318.682V192.562Z" fill="#FAFAFA"/>
<path d="M322.884 159.375H320.234V162.205H322.884V159.375Z" fill="#FAFAFA"/>
<path d="M322.884 164.086H320.234V166.916H322.884V164.086Z" fill="#FAFAFA"/>
<path d="M322.884 168.844H320.234V171.674H322.884V168.844Z" fill="#FAFAFA"/>
<path d="M322.884 173.578H320.234V176.408H322.884V173.578Z" fill="#FAFAFA"/>
<path d="M322.884 178.328H320.234V181.158H322.884V178.328Z" fill="#FAFAFA"/>
<path d="M322.884 183.086H320.234V185.916H322.884V183.086Z" fill="#FAFAFA"/>
<path d="M322.884 192.562H320.234V195.393H322.884V192.562Z" fill="#FAFAFA"/>
<path d="M322.884 197.328H320.234V200.158H322.884V197.328Z" fill="#FAFAFA"/>
<path d="M322.884 211.523H320.234V214.354H322.884V211.523Z" fill="#FAFAFA"/>
<path d="M322.884 216.281H320.234V219.111H322.884V216.281Z" fill="#FAFAFA"/>
<path d="M322.884 221.031H320.234V223.861H322.884V221.031Z" fill="#FAFAFA"/>
<path d="M322.884 225.766H320.234V228.596H322.884V225.766Z" fill="#FAFAFA"/>
<path d="M322.884 230.5H320.234V233.33H322.884V230.5Z" fill="#FAFAFA"/>
<path d="M322.884 235.25H320.234V238.08H322.884V235.25Z" fill="#FAFAFA"/>
<path d="M322.884 240H320.234V242.83H322.884V240Z" fill="#FAFAFA"/>
<path d="M327.086 159.375H324.437V162.205H327.086V159.375Z" fill="#FAFAFA"/>
<path d="M327.086 164.086H324.437V166.916H327.086V164.086Z" fill="#FAFAFA"/>
<path d="M327.086 168.844H324.437V171.674H327.086V168.844Z" fill="#FAFAFA"/>
<path d="M327.086 173.578H324.437V176.408H327.086V173.578Z" fill="#FAFAFA"/>
<path d="M327.086 178.328H324.437V181.158H327.086V178.328Z" fill="#FAFAFA"/>
<path d="M327.086 183.086H324.437V185.916H327.086V183.086Z" fill="#FAFAFA"/>
<path d="M327.086 197.328H324.437V200.158H327.086V197.328Z" fill="#FAFAFA"/>
<path d="M327.086 202.055H324.437V204.885H327.086V202.055Z" fill="#FAFAFA"/>
<path d="M327.086 206.789H324.437V209.619H327.086V206.789Z" fill="#FAFAFA"/>
<path d="M327.086 211.523H324.437V214.354H327.086V211.523Z" fill="#FAFAFA"/>
<path d="M327.086 216.281H324.437V219.111H327.086V216.281Z" fill="#FAFAFA"/>
<path d="M327.086 221.031H324.437V223.861H327.086V221.031Z" fill="#FAFAFA"/>
<path d="M327.086 225.766H324.437V228.596H327.086V225.766Z" fill="#FAFAFA"/>
<path d="M327.086 230.5H324.437V233.33H327.086V230.5Z" fill="#FAFAFA"/>
<path d="M327.086 235.25H324.437V238.08H327.086V235.25Z" fill="#FAFAFA"/>
<path d="M327.086 240H324.437V242.83H327.086V240Z" fill="#FAFAFA"/>
<path d="M327.086 244.766H324.437V247.596H327.086V244.766Z" fill="#FAFAFA"/>
<path d="M327.086 254.234H324.437V257.065H327.086V254.234Z" fill="#FAFAFA"/>
<path d="M331.303 159.375H328.654V162.205H331.303V159.375Z" fill="#FAFAFA"/>
<path d="M331.303 164.086H328.654V166.916H331.303V164.086Z" fill="#FAFAFA"/>
<path d="M331.303 168.844H328.654V171.674H331.303V168.844Z" fill="#FAFAFA"/>
<path d="M331.303 173.578H328.654V176.408H331.303V173.578Z" fill="#FAFAFA"/>
<path d="M331.303 178.328H328.654V181.158H331.303V178.328Z" fill="#FAFAFA"/>
<path d="M331.303 183.086H328.654V185.916H331.303V183.086Z" fill="#FAFAFA"/>
<path d="M331.303 197.328H328.654V200.158H331.303V197.328Z" fill="#FAFAFA"/>
<path d="M331.303 202.055H328.654V204.885H331.303V202.055Z" fill="#FAFAFA"/>
<path d="M331.303 206.789H328.654V209.619H331.303V206.789Z" fill="#FAFAFA"/>
<path d="M331.303 211.523H328.654V214.354H331.303V211.523Z" fill="#FAFAFA"/>
<path d="M331.303 225.766H328.654V228.596H331.303V225.766Z" fill="#FAFAFA"/>
<path d="M331.303 230.5H328.654V233.33H331.303V230.5Z" fill="#FAFAFA"/>
<path d="M331.303 235.25H328.654V238.08H331.303V235.25Z" fill="#FAFAFA"/>
<path d="M331.303 240H328.654V242.83H331.303V240Z" fill="#FAFAFA"/>
<path d="M331.303 244.766H328.654V247.596H331.303V244.766Z" fill="#FAFAFA"/>
<path d="M331.303 254.234H328.654V257.065H331.303V254.234Z" fill="#FAFAFA"/>
<path d="M331.303 258.969H328.654V261.799H331.303V258.969Z" fill="#FAFAFA"/>
<path d="M369.457 203.453H366.808V206.283H369.457V203.453Z" fill="#FAFAFA"/>
<path d="M369.457 208.211H366.808V211.041H369.457V208.211Z" fill="#FAFAFA"/>
<path d="M369.457 212.953H366.808V215.783H369.457V212.953Z" fill="#FAFAFA"/>
<path d="M369.457 217.703H366.808V220.533H369.457V217.703Z" fill="#FAFAFA"/>
<path d="M369.457 222.445H366.808V225.276H369.457V222.445Z" fill="#FAFAFA"/>
<path d="M369.457 227.18H366.808V230.01H369.457V227.18Z" fill="#FAFAFA"/>
<path d="M369.457 231.93H366.808V234.76H369.457V231.93Z" fill="#FAFAFA"/>
<path d="M369.457 246.156H366.808V248.986H369.457V246.156Z" fill="#FAFAFA"/>
<path d="M369.457 250.891H366.808V253.721H369.457V250.891Z" fill="#FAFAFA"/>
<path d="M369.457 255.641H366.808V258.471H369.457V255.641Z" fill="#FAFAFA"/>
<path d="M373.674 203.453H371.025V206.283H373.674V203.453Z" fill="#FAFAFA"/>
<path d="M373.674 208.211H371.025V211.041H373.674V208.211Z" fill="#FAFAFA"/>
<path d="M373.674 212.953H371.025V215.783H373.674V212.953Z" fill="#FAFAFA"/>
<path d="M373.674 217.703H371.025V220.533H373.674V217.703Z" fill="#FAFAFA"/>
<path d="M373.674 222.445H371.025V225.276H373.674V222.445Z" fill="#FAFAFA"/>
<path d="M373.674 227.18H371.025V230.01H373.674V227.18Z" fill="#FAFAFA"/>
<path d="M373.674 231.93H371.025V234.76H373.674V231.93Z" fill="#FAFAFA"/>
<path d="M379.034 203.453H375.227V206.283H379.034V203.453Z" fill="#FAFAFA"/>
<path d="M379.034 208.211H375.227V211.041H379.034V208.211Z" fill="#FAFAFA"/>
<path d="M379.034 212.953H375.227V215.783H379.034V212.953Z" fill="#FAFAFA"/>
<path d="M379.034 217.703H375.227V220.533H379.034V217.703Z" fill="#FAFAFA"/>
<path d="M379.034 222.445H375.227V225.276H379.034V222.445Z" fill="#FAFAFA"/>
<path d="M379.034 227.18H375.227V230.01H379.034V227.18Z" fill="#FAFAFA"/>
<path d="M379.034 231.93H375.227V234.76H379.034V231.93Z" fill="#FAFAFA"/>
<path d="M146.548 209.633H143.899V212.463H146.548V209.633Z" fill="#FAFAFA"/>
<path d="M146.548 214.352H143.899V217.182H146.548V214.352Z" fill="#FAFAFA"/>
<path d="M146.548 219.102H143.899V221.932H146.548V219.102Z" fill="#FAFAFA"/>
<path d="M146.548 223.836H143.899V226.666H146.548V223.836Z" fill="#FAFAFA"/>
<path d="M146.548 228.602H143.899V231.432H146.548V228.602Z" fill="#FAFAFA"/>
<path d="M146.548 233.336H143.899V236.166H146.548V233.336Z" fill="#FAFAFA"/>
<path d="M146.548 238.07H143.899V240.901H146.548V238.07Z" fill="#FAFAFA"/>
<path d="M146.548 242.82H143.899V245.651H146.548V242.82Z" fill="#FAFAFA"/>
<path d="M146.548 247.578H143.899V250.408H146.548V247.578Z" fill="#FAFAFA"/>
<path d="M146.548 252.32H143.899V255.151H146.548V252.32Z" fill="#FAFAFA"/>
<path d="M146.548 257.055H143.899V259.885H146.548V257.055Z" fill="#FAFAFA"/>
<path d="M146.548 261.789H143.899V264.619H146.548V261.789Z" fill="#FAFAFA"/>
<path d="M146.548 266.539H143.899V269.369H146.548V266.539Z" fill="#FAFAFA"/>
<path d="M146.548 271.305H143.899V274.135H146.548V271.305Z" fill="#FAFAFA"/>
<path d="M146.548 276.008H143.899V278.838H146.548V276.008Z" fill="#FAFAFA"/>
<path d="M146.548 280.773H143.899V283.604H146.548V280.773Z" fill="#FAFAFA"/>
<path d="M146.548 285.508H143.899V288.338H146.548V285.508Z" fill="#FAFAFA"/>
<path d="M146.548 290.258H143.899V293.088H146.548V290.258Z" fill="#FAFAFA"/>
<path d="M146.548 295H143.899V297.83H146.548V295Z" fill="#FAFAFA"/>
<path d="M146.548 299.734H143.899V302.565H146.548V299.734Z" fill="#FAFAFA"/>
<path d="M150.75 209.633H148.101V212.463H150.75V209.633Z" fill="#FAFAFA"/>
<path d="M150.75 214.352H148.101V217.182H150.75V214.352Z" fill="#FAFAFA"/>
<path d="M150.75 219.102H148.101V221.932H150.75V219.102Z" fill="#FAFAFA"/>
<path d="M150.75 223.836H148.101V226.666H150.75V223.836Z" fill="#FAFAFA"/>
<path d="M150.75 228.602H148.101V231.432H150.75V228.602Z" fill="#FAFAFA"/>
<path d="M150.75 233.336H148.101V236.166H150.75V233.336Z" fill="#FAFAFA"/>
<path d="M150.75 238.07H148.101V240.901H150.75V238.07Z" fill="#FAFAFA"/>
<path d="M150.75 242.82H148.101V245.651H150.75V242.82Z" fill="#FAFAFA"/>
<path d="M150.75 247.578H148.101V250.408H150.75V247.578Z" fill="#FAFAFA"/>
<path d="M150.75 252.32H148.101V255.151H150.75V252.32Z" fill="#FAFAFA"/>
<path d="M150.75 257.055H148.101V259.885H150.75V257.055Z" fill="#FAFAFA"/>
<path d="M150.75 261.789H148.101V264.619H150.75V261.789Z" fill="#FAFAFA"/>
<path d="M150.75 266.539H148.101V269.369H150.75V266.539Z" fill="#FAFAFA"/>
<path d="M150.75 271.305H148.101V274.135H150.75V271.305Z" fill="#FAFAFA"/>
<path d="M150.75 276.008H148.101V278.838H150.75V276.008Z" fill="#FAFAFA"/>
<path d="M150.75 280.773H148.101V283.604H150.75V280.773Z" fill="#FAFAFA"/>
<path d="M150.75 285.508H148.101V288.338H150.75V285.508Z" fill="#FAFAFA"/>
<path d="M150.75 290.258H148.101V293.088H150.75V290.258Z" fill="#FAFAFA"/>
<path d="M154.952 209.633H152.303V212.463H154.952V209.633Z" fill="#FAFAFA"/>
<path d="M154.952 214.352H152.303V217.182H154.952V214.352Z" fill="#FAFAFA"/>
<path d="M154.952 219.102H152.303V221.932H154.952V219.102Z" fill="#FAFAFA"/>
<path d="M154.952 223.836H152.303V226.666H154.952V223.836Z" fill="#FAFAFA"/>
<path d="M154.952 228.602H152.303V231.432H154.952V228.602Z" fill="#FAFAFA"/>
<path d="M154.952 233.336H152.303V236.166H154.952V233.336Z" fill="#FAFAFA"/>
<path d="M154.952 238.07H152.303V240.901H154.952V238.07Z" fill="#FAFAFA"/>
<path d="M154.952 242.82H152.303V245.651H154.952V242.82Z" fill="#FAFAFA"/>
<path d="M154.952 247.578H152.303V250.408H154.952V247.578Z" fill="#FAFAFA"/>
<path d="M154.952 252.32H152.303V255.151H154.952V252.32Z" fill="#FAFAFA"/>
<path d="M154.952 257.055H152.303V259.885H154.952V257.055Z" fill="#FAFAFA"/>
<path d="M154.952 261.789H152.303V264.619H154.952V261.789Z" fill="#FAFAFA"/>
<path d="M154.952 266.539H152.303V269.369H154.952V266.539Z" fill="#FAFAFA"/>
<path d="M154.952 271.305H152.303V274.135H154.952V271.305Z" fill="#FAFAFA"/>
<path d="M154.952 276.008H152.303V278.838H154.952V276.008Z" fill="#FAFAFA"/>
<path d="M154.952 280.773H152.303V283.604H154.952V280.773Z" fill="#FAFAFA"/>
<path d="M154.952 285.508H152.303V288.338H154.952V285.508Z" fill="#FAFAFA"/>
<path d="M154.952 290.258H152.303V293.088H154.952V290.258Z" fill="#FAFAFA"/>
<path d="M130.805 244.25H128.156V247.08H130.805V244.25Z" fill="#FAFAFA"/>
<path d="M130.805 248.984H128.156V251.815H130.805V248.984Z" fill="#FAFAFA"/>
<path d="M130.805 253.719H128.156V256.549H130.805V253.719Z" fill="#FAFAFA"/>
<path d="M130.805 258.477H128.156V261.307H130.805V258.477Z" fill="#FAFAFA"/>
<path d="M130.805 263.211H128.156V266.041H130.805V263.211Z" fill="#FAFAFA"/>
<path d="M130.805 267.945H128.156V270.776H130.805V267.945Z" fill="#FAFAFA"/>
<path d="M130.805 272.695H128.156V275.526H130.805V272.695Z" fill="#FAFAFA"/>
<path d="M130.805 277.438H128.156V280.268H130.805V277.438Z" fill="#FAFAFA"/>
<path d="M130.805 282.203H128.156V285.033H130.805V282.203Z" fill="#FAFAFA"/>
<path d="M130.805 286.938H128.156V289.768H130.805V286.938Z" fill="#FAFAFA"/>
<path d="M130.805 291.672H128.156V294.502H130.805V291.672Z" fill="#FAFAFA"/>
<path d="M130.805 296.422H128.156V299.252H130.805V296.422Z" fill="#FAFAFA"/>
<path d="M130.805 301.156H128.156V303.986H130.805V301.156Z" fill="#FAFAFA"/>
<path d="M135.007 244.25H132.358V247.08H135.007V244.25Z" fill="#FAFAFA"/>
<path d="M135.007 248.984H132.358V251.815H135.007V248.984Z" fill="#FAFAFA"/>
<path d="M135.007 253.719H132.358V256.549H135.007V253.719Z" fill="#FAFAFA"/>
<path d="M135.007 258.477H132.358V261.307H135.007V258.477Z" fill="#FAFAFA"/>
<path d="M135.007 263.211H132.358V266.041H135.007V263.211Z" fill="#FAFAFA"/>
<path d="M135.007 267.945H132.358V270.776H135.007V267.945Z" fill="#FAFAFA"/>
<path d="M135.007 272.695H132.358V275.526H135.007V272.695Z" fill="#FAFAFA"/>
<path d="M135.007 277.438H132.358V280.268H135.007V277.438Z" fill="#FAFAFA"/>
<path d="M135.007 282.203H132.358V285.033H135.007V282.203Z" fill="#FAFAFA"/>
<path d="M135.007 286.938H132.358V289.768H135.007V286.938Z" fill="#FAFAFA"/>
<path d="M135.007 291.672H132.358V294.502H135.007V291.672Z" fill="#FAFAFA"/>
<path d="M135.007 296.422H132.358V299.252H135.007V296.422Z" fill="#FAFAFA"/>
<path d="M135.007 301.156H132.358V303.986H135.007V301.156Z" fill="#FAFAFA"/>
<path d="M139.225 244.25H136.575V247.08H139.225V244.25Z" fill="#FAFAFA"/>
<path d="M139.225 248.984H136.575V251.815H139.225V248.984Z" fill="#FAFAFA"/>
<path d="M139.225 253.719H136.575V256.549H139.225V253.719Z" fill="#FAFAFA"/>
<path d="M139.225 258.477H136.575V261.307H139.225V258.477Z" fill="#FAFAFA"/>
<path d="M139.225 263.211H136.575V266.041H139.225V263.211Z" fill="#FAFAFA"/>
<path d="M139.225 267.945H136.575V270.776H139.225V267.945Z" fill="#FAFAFA"/>
<path d="M139.225 272.695H136.575V275.526H139.225V272.695Z" fill="#FAFAFA"/>
<path d="M139.225 277.438H136.575V280.268H139.225V277.438Z" fill="#FAFAFA"/>
<path d="M139.225 282.203H136.575V285.033H139.225V282.203Z" fill="#FAFAFA"/>
<path d="M139.225 286.938H136.575V289.768H139.225V286.938Z" fill="#FAFAFA"/>
<path d="M139.225 291.672H136.575V294.502H139.225V291.672Z" fill="#FAFAFA"/>
<path d="M139.225 296.422H136.575V299.252H139.225V296.422Z" fill="#FAFAFA"/>
<path d="M139.225 301.156H136.575V303.986H139.225V301.156Z" fill="#FAFAFA"/>
<path d="M139.225 305.914H136.575V308.744H139.225V305.914Z" fill="#FAFAFA"/>
<path d="M162.595 245.648H159.946V248.479H162.595V245.648Z" fill="#FAFAFA"/>
<path d="M162.595 250.383H159.946V253.213H162.595V250.383Z" fill="#FAFAFA"/>
<path d="M162.595 255.141H159.946V257.971H162.595V255.141Z" fill="#FAFAFA"/>
<path d="M162.595 259.891H159.946V262.721H162.595V259.891Z" fill="#FAFAFA"/>
<path d="M162.595 264.617H159.946V267.447H162.595V264.617Z" fill="#FAFAFA"/>
<path d="M162.595 269.375H159.946V272.205H162.595V269.375Z" fill="#FAFAFA"/>
<path d="M162.595 274.125H159.946V276.955H162.595V274.125Z" fill="#FAFAFA"/>
<path d="M162.595 278.859H159.946V281.69H162.595V278.859Z" fill="#FAFAFA"/>
<path d="M162.595 283.594H159.946V286.424H162.595V283.594Z" fill="#FAFAFA"/>
<path d="M162.595 288.328H159.946V291.158H162.595V288.328Z" fill="#FAFAFA"/>
<path d="M162.595 302.578H159.946V305.408H162.595V302.578Z" fill="#FAFAFA"/>
<path d="M166.797 245.648H164.148V248.479H166.797V245.648Z" fill="#FAFAFA"/>
<path d="M166.797 250.383H164.148V253.213H166.797V250.383Z" fill="#FAFAFA"/>
<path d="M166.797 255.141H164.148V257.971H166.797V255.141Z" fill="#FAFAFA"/>
<path d="M166.797 259.891H164.148V262.721H166.797V259.891Z" fill="#FAFAFA"/>
<path d="M166.797 264.617H164.148V267.447H166.797V264.617Z" fill="#FAFAFA"/>
<path d="M166.797 269.375H164.148V272.205H166.797V269.375Z" fill="#FAFAFA"/>
<path d="M166.797 274.125H164.148V276.955H166.797V274.125Z" fill="#FAFAFA"/>
<path d="M166.797 278.859H164.148V281.69H166.797V278.859Z" fill="#FAFAFA"/>
<path d="M166.797 283.594H164.148V286.424H166.797V283.594Z" fill="#FAFAFA"/>
<path d="M166.797 297.844H164.148V300.674H166.797V297.844Z" fill="#FAFAFA"/>
<path d="M166.797 302.578H164.148V305.408H166.797V302.578Z" fill="#FAFAFA"/>
<path d="M170.999 245.648H168.35V248.479H170.999V245.648Z" fill="#FAFAFA"/>
<path d="M170.999 250.383H168.35V253.213H170.999V250.383Z" fill="#FAFAFA"/>
<path d="M170.999 255.141H168.35V257.971H170.999V255.141Z" fill="#FAFAFA"/>
<path d="M170.999 259.891H168.35V262.721H170.999V259.891Z" fill="#FAFAFA"/>
<path d="M170.999 264.617H168.35V267.447H170.999V264.617Z" fill="#FAFAFA"/>
<path d="M170.999 269.375H168.35V272.205H170.999V269.375Z" fill="#FAFAFA"/>
<path d="M170.999 274.125H168.35V276.955H170.999V274.125Z" fill="#FAFAFA"/>
<path d="M170.999 278.859H168.35V281.69H170.999V278.859Z" fill="#FAFAFA"/>
<path d="M170.999 293.078H168.35V295.908H170.999V293.078Z" fill="#FAFAFA"/>
<path d="M170.999 297.844H168.35V300.674H170.999V297.844Z" fill="#FAFAFA"/>
<path d="M170.999 302.578H168.35V305.408H170.999V302.578Z" fill="#FAFAFA"/>
<path d="M210.097 173.578H207.448V176.408H210.097V173.578Z" fill="#FAFAFA"/>
<path d="M210.097 178.328H207.448V181.158H210.097V178.328Z" fill="#FAFAFA"/>
<path d="M210.097 183.086H207.448V185.916H210.097V183.086Z" fill="#FAFAFA"/>
<path d="M210.097 187.812H207.448V190.643H210.097V187.812Z" fill="#FAFAFA"/>
<path d="M210.097 192.562H207.448V195.393H210.097V192.562Z" fill="#FAFAFA"/>
<path d="M210.097 197.328H207.448V200.158H210.097V197.328Z" fill="#FAFAFA"/>
<path d="M210.097 202.055H207.448V204.885H210.097V202.055Z" fill="#FAFAFA"/>
<path d="M210.097 206.789H207.448V209.619H210.097V206.789Z" fill="#FAFAFA"/>
<path d="M210.097 211.523H207.448V214.354H210.097V211.523Z" fill="#FAFAFA"/>
<path d="M210.097 216.281H207.448V219.111H210.097V216.281Z" fill="#FAFAFA"/>
<path d="M210.097 221.031H207.448V223.861H210.097V221.031Z" fill="#FAFAFA"/>
<path d="M210.097 225.766H207.448V228.596H210.097V225.766Z" fill="#FAFAFA"/>
<path d="M210.097 230.5H207.448V233.33H210.097V230.5Z" fill="#FAFAFA"/>
<path d="M210.097 235.25H207.448V238.08H210.097V235.25Z" fill="#FAFAFA"/>
<path d="M210.097 240H207.448V242.83H210.097V240Z" fill="#FAFAFA"/>
<path d="M210.097 244.766H207.448V247.596H210.097V244.766Z" fill="#FAFAFA"/>
<path d="M210.097 249.469H207.448V252.299H210.097V249.469Z" fill="#FAFAFA"/>
<path d="M210.097 258.969H207.448V261.799H210.097V258.969Z" fill="#FAFAFA"/>
<path d="M210.097 263.719H207.448V266.549H210.097V263.719Z" fill="#FAFAFA"/>
<path d="M210.097 268.453H207.448V271.283H210.097V268.453Z" fill="#FAFAFA"/>
<path d="M210.097 273.188H207.448V276.018H210.097V273.188Z" fill="#FAFAFA"/>
<path d="M210.097 277.938H207.448V280.768H210.097V277.938Z" fill="#FAFAFA"/>
<path d="M214.299 173.578H211.65V176.408H214.299V173.578Z" fill="#FAFAFA"/>
<path d="M214.299 178.328H211.65V181.158H214.299V178.328Z" fill="#FAFAFA"/>
<path d="M214.299 183.086H211.65V185.916H214.299V183.086Z" fill="#FAFAFA"/>
<path d="M214.299 187.812H211.65V190.643H214.299V187.812Z" fill="#FAFAFA"/>
<path d="M214.299 192.562H211.65V195.393H214.299V192.562Z" fill="#FAFAFA"/>
<path d="M214.299 197.328H211.65V200.158H214.299V197.328Z" fill="#FAFAFA"/>
<path d="M214.299 202.055H211.65V204.885H214.299V202.055Z" fill="#FAFAFA"/>
<path d="M214.299 206.789H211.65V209.619H214.299V206.789Z" fill="#FAFAFA"/>
<path d="M214.299 211.523H211.65V214.354H214.299V211.523Z" fill="#FAFAFA"/>
<path d="M214.299 216.281H211.65V219.111H214.299V216.281Z" fill="#FAFAFA"/>
<path d="M214.299 221.031H211.65V223.861H214.299V221.031Z" fill="#FAFAFA"/>
<path d="M214.299 225.766H211.65V228.596H214.299V225.766Z" fill="#FAFAFA"/>
<path d="M214.299 230.5H211.65V233.33H214.299V230.5Z" fill="#FAFAFA"/>
<path d="M214.299 235.25H211.65V238.08H214.299V235.25Z" fill="#FAFAFA"/>
<path d="M214.299 240H211.65V242.83H214.299V240Z" fill="#FAFAFA"/>
<path d="M214.299 244.766H211.65V247.596H214.299V244.766Z" fill="#FAFAFA"/>
<path d="M214.299 273.188H211.65V276.018H214.299V273.188Z" fill="#FAFAFA"/>
<path d="M214.299 277.938H211.65V280.768H214.299V277.938Z" fill="#FAFAFA"/>
<path d="M218.516 173.578H215.867V176.408H218.516V173.578Z" fill="#FAFAFA"/>
<path d="M218.516 178.328H215.867V181.158H218.516V178.328Z" fill="#FAFAFA"/>
<path d="M218.516 183.086H215.867V185.916H218.516V183.086Z" fill="#FAFAFA"/>
<path d="M218.516 187.812H215.867V190.643H218.516V187.812Z" fill="#FAFAFA"/>
<path d="M218.516 192.562H215.867V195.393H218.516V192.562Z" fill="#FAFAFA"/>
<path d="M218.516 197.328H215.867V200.158H218.516V197.328Z" fill="#FAFAFA"/>
<path d="M218.516 202.055H215.867V204.885H218.516V202.055Z" fill="#FAFAFA"/>
<path d="M218.516 206.789H215.867V209.619H218.516V206.789Z" fill="#FAFAFA"/>
<path d="M218.516 211.523H215.867V214.354H218.516V211.523Z" fill="#FAFAFA"/>
<path d="M218.516 216.281H215.867V219.111H218.516V216.281Z" fill="#FAFAFA"/>
<path d="M218.516 221.031H215.867V223.861H218.516V221.031Z" fill="#FAFAFA"/>
<path d="M218.516 225.766H215.867V228.596H218.516V225.766Z" fill="#FAFAFA"/>
<path d="M218.516 230.5H215.867V233.33H218.516V230.5Z" fill="#FAFAFA"/>
<path d="M218.516 235.25H215.867V238.08H218.516V235.25Z" fill="#FAFAFA"/>
<path d="M218.516 240H215.867V242.83H218.516V240Z" fill="#FAFAFA"/>
<path d="M218.516 244.766H215.867V247.596H218.516V244.766Z" fill="#FAFAFA"/>
<path d="M218.516 254.234H215.867V257.065H218.516V254.234Z" fill="#FAFAFA"/>
<path d="M218.516 258.969H215.867V261.799H218.516V258.969Z" fill="#FAFAFA"/>
<path d="M218.516 263.719H215.867V266.549H218.516V263.719Z" fill="#FAFAFA"/>
<path d="M218.516 268.453H215.867V271.283H218.516V268.453Z" fill="#FAFAFA"/>
<path d="M218.516 277.938H215.867V280.768H218.516V277.938Z" fill="#FAFAFA"/>
<path d="M194.826 233.336H192.177V236.166H194.826V233.336Z" fill="#FAFAFA"/>
<path d="M194.826 238.07H192.177V240.901H194.826V238.07Z" fill="#FAFAFA"/>
<path d="M194.826 242.82H192.177V245.651H194.826V242.82Z" fill="#FAFAFA"/>
<path d="M194.826 247.578H192.177V250.408H194.826V247.578Z" fill="#FAFAFA"/>
<path d="M194.826 252.32H192.177V255.151H194.826V252.32Z" fill="#FAFAFA"/>
<path d="M194.826 257.055H192.177V259.885H194.826V257.055Z" fill="#FAFAFA"/>
<path d="M194.826 261.789H192.177V264.619H194.826V261.789Z" fill="#FAFAFA"/>
<path d="M194.826 271.305H192.177V274.135H194.826V271.305Z" fill="#FAFAFA"/>
<path d="M194.826 276.008H192.177V278.838H194.826V276.008Z" fill="#FAFAFA"/>
<path d="M194.826 280.773H192.177V283.604H194.826V280.773Z" fill="#FAFAFA"/>
<path d="M194.826 285.508H192.177V288.338H194.826V285.508Z" fill="#FAFAFA"/>
<path d="M194.826 290.258H192.177V293.088H194.826V290.258Z" fill="#FAFAFA"/>
<path d="M194.826 295H192.177V297.83H194.826V295Z" fill="#FAFAFA"/>
<path d="M194.826 299.734H192.177V302.565H194.826V299.734Z" fill="#FAFAFA"/>
<path d="M194.826 304.492H192.177V307.322H194.826V304.492Z" fill="#FAFAFA"/>
<path d="M199.044 233.336H196.394V236.166H199.044V233.336Z" fill="#FAFAFA"/>
<path d="M199.044 238.07H196.394V240.901H199.044V238.07Z" fill="#FAFAFA"/>
<path d="M199.044 242.82H196.394V245.651H199.044V242.82Z" fill="#FAFAFA"/>
<path d="M199.044 247.578H196.394V250.408H199.044V247.578Z" fill="#FAFAFA"/>
<path d="M199.044 252.32H196.394V255.151H199.044V252.32Z" fill="#FAFAFA"/>
<path d="M199.044 257.055H196.394V259.885H199.044V257.055Z" fill="#FAFAFA"/>
<path d="M199.044 271.305H196.394V274.135H199.044V271.305Z" fill="#FAFAFA"/>
<path d="M199.044 276.008H196.394V278.838H199.044V276.008Z" fill="#FAFAFA"/>
<path d="M199.044 280.773H196.394V283.604H199.044V280.773Z" fill="#FAFAFA"/>
<path d="M199.044 285.508H196.394V288.338H199.044V285.508Z" fill="#FAFAFA"/>
<path d="M199.044 290.258H196.394V293.088H199.044V290.258Z" fill="#FAFAFA"/>
<path d="M199.044 295H196.394V297.83H199.044V295Z" fill="#FAFAFA"/>
<path d="M199.044 299.734H196.394V302.565H199.044V299.734Z" fill="#FAFAFA"/>
<path d="M199.044 304.492H196.394V307.322H199.044V304.492Z" fill="#FAFAFA"/>
<path d="M203.246 233.336H200.597V236.166H203.246V233.336Z" fill="#FAFAFA"/>
<path d="M203.246 238.07H200.597V240.901H203.246V238.07Z" fill="#FAFAFA"/>
<path d="M203.246 242.82H200.597V245.651H203.246V242.82Z" fill="#FAFAFA"/>
<path d="M203.246 247.578H200.597V250.408H203.246V247.578Z" fill="#FAFAFA"/>
<path d="M203.246 252.32H200.597V255.151H203.246V252.32Z" fill="#FAFAFA"/>
<path d="M203.246 257.055H200.597V259.885H203.246V257.055Z" fill="#FAFAFA"/>
<path d="M203.246 266.539H200.597V269.369H203.246V266.539Z" fill="#FAFAFA"/>
<path d="M203.246 271.305H200.597V274.135H203.246V271.305Z" fill="#FAFAFA"/>
<path d="M203.246 276.008H200.597V278.838H203.246V276.008Z" fill="#FAFAFA"/>
<path d="M203.246 280.773H200.597V283.604H203.246V280.773Z" fill="#FAFAFA"/>
<path d="M203.246 285.508H200.597V288.338H203.246V285.508Z" fill="#FAFAFA"/>
<path d="M203.246 290.258H200.597V293.088H203.246V290.258Z" fill="#FAFAFA"/>
<path d="M203.246 295H200.597V297.83H203.246V295Z" fill="#FAFAFA"/>
<path d="M203.246 299.734H200.597V302.565H203.246V299.734Z" fill="#FAFAFA"/>
<path d="M203.246 304.492H200.597V307.322H203.246V304.492Z" fill="#FAFAFA"/>
<path d="M291.886 206.789H289.237V209.619H291.886V206.789Z" fill="#FAFAFA"/>
<path d="M291.886 211.523H289.237V214.354H291.886V211.523Z" fill="#FAFAFA"/>
<path d="M291.886 216.281H289.237V219.111H291.886V216.281Z" fill="#FAFAFA"/>
<path d="M291.886 221.031H289.237V223.861H291.886V221.031Z" fill="#FAFAFA"/>
<path d="M291.886 225.766H289.237V228.596H291.886V225.766Z" fill="#FAFAFA"/>
<path d="M291.886 230.5H289.237V233.33H291.886V230.5Z" fill="#FAFAFA"/>
<path d="M291.886 235.25H289.237V238.08H291.886V235.25Z" fill="#FAFAFA"/>
<path d="M291.886 240H289.237V242.83H291.886V240Z" fill="#FAFAFA"/>
<path d="M291.886 244.766H289.237V247.596H291.886V244.766Z" fill="#FAFAFA"/>
<path d="M291.886 249.469H289.237V252.299H291.886V249.469Z" fill="#FAFAFA"/>
<path d="M291.886 254.234H289.237V257.065H291.886V254.234Z" fill="#FAFAFA"/>
<path d="M291.886 258.969H289.237V261.799H291.886V258.969Z" fill="#FAFAFA"/>
<path d="M291.886 263.719H289.237V266.549H291.886V263.719Z" fill="#FAFAFA"/>
<path d="M291.886 273.188H289.237V276.018H291.886V273.188Z" fill="#FAFAFA"/>
<path d="M291.886 277.938H289.237V280.768H291.886V277.938Z" fill="#FAFAFA"/>
<path d="M291.886 282.688H289.237V285.518H291.886V282.688Z" fill="#FAFAFA"/>
<path d="M291.886 287.438H289.237V290.268H291.886V287.438Z" fill="#FAFAFA"/>
<path d="M291.886 296.906H289.237V299.736H291.886V296.906Z" fill="#FAFAFA"/>
<path d="M291.886 301.664H289.237V304.494H291.886V301.664Z" fill="#FAFAFA"/>
<path d="M291.886 306.398H289.237V309.229H291.886V306.398Z" fill="#FAFAFA"/>
<path d="M296.088 206.789H293.439V209.619H296.088V206.789Z" fill="#FAFAFA"/>
<path d="M296.088 211.523H293.439V214.354H296.088V211.523Z" fill="#FAFAFA"/>
<path d="M296.088 216.281H293.439V219.111H296.088V216.281Z" fill="#FAFAFA"/>
<path d="M296.088 221.031H293.439V223.861H296.088V221.031Z" fill="#FAFAFA"/>
<path d="M296.088 225.766H293.439V228.596H296.088V225.766Z" fill="#FAFAFA"/>
<path d="M296.088 230.5H293.439V233.33H296.088V230.5Z" fill="#FAFAFA"/>
<path d="M296.088 235.25H293.439V238.08H296.088V235.25Z" fill="#FAFAFA"/>
<path d="M296.088 240H293.439V242.83H296.088V240Z" fill="#FAFAFA"/>
<path d="M296.088 244.766H293.439V247.596H296.088V244.766Z" fill="#FAFAFA"/>
<path d="M296.088 249.469H293.439V252.299H296.088V249.469Z" fill="#FAFAFA"/>
<path d="M296.088 254.234H293.439V257.065H296.088V254.234Z" fill="#FAFAFA"/>
<path d="M296.088 258.969H293.439V261.799H296.088V258.969Z" fill="#FAFAFA"/>
<path d="M296.088 263.719H293.439V266.549H296.088V263.719Z" fill="#FAFAFA"/>
<path d="M296.088 277.938H293.439V280.768H296.088V277.938Z" fill="#FAFAFA"/>
<path d="M296.088 282.688H293.439V285.518H296.088V282.688Z" fill="#FAFAFA"/>
<path d="M296.088 292.172H293.439V295.002H296.088V292.172Z" fill="#FAFAFA"/>
<path d="M296.088 296.906H293.439V299.736H296.088V296.906Z" fill="#FAFAFA"/>
<path d="M296.088 301.664H293.439V304.494H296.088V301.664Z" fill="#FAFAFA"/>
<path d="M296.088 306.398H293.439V309.229H296.088V306.398Z" fill="#FAFAFA"/>
<path d="M300.29 206.789H297.641V209.619H300.29V206.789Z" fill="#FAFAFA"/>
<path d="M300.29 211.523H297.641V214.354H300.29V211.523Z" fill="#FAFAFA"/>
<path d="M300.29 216.281H297.641V219.111H300.29V216.281Z" fill="#FAFAFA"/>
<path d="M300.29 221.031H297.641V223.861H300.29V221.031Z" fill="#FAFAFA"/>
<path d="M300.29 225.766H297.641V228.596H300.29V225.766Z" fill="#FAFAFA"/>
<path d="M300.29 230.5H297.641V233.33H300.29V230.5Z" fill="#FAFAFA"/>
<path d="M300.29 235.25H297.641V238.08H300.29V235.25Z" fill="#FAFAFA"/>
<path d="M300.29 240H297.641V242.83H300.29V240Z" fill="#FAFAFA"/>
<path d="M300.29 244.766H297.641V247.596H300.29V244.766Z" fill="#FAFAFA"/>
<path d="M300.29 249.469H297.641V252.299H300.29V249.469Z" fill="#FAFAFA"/>
<path d="M300.29 254.234H297.641V257.065H300.29V254.234Z" fill="#FAFAFA"/>
<path d="M300.29 258.969H297.641V261.799H300.29V258.969Z" fill="#FAFAFA"/>
<path d="M300.29 263.719H297.641V266.549H300.29V263.719Z" fill="#FAFAFA"/>
<path d="M300.29 268.453H297.641V271.283H300.29V268.453Z" fill="#FAFAFA"/>
<path d="M300.29 277.938H297.641V280.768H300.29V277.938Z" fill="#FAFAFA"/>
<path d="M300.29 287.438H297.641V290.268H300.29V287.438Z" fill="#FAFAFA"/>
<path d="M300.29 292.172H297.641V295.002H300.29V292.172Z" fill="#FAFAFA"/>
<path d="M300.29 296.906H297.641V299.736H300.29V296.906Z" fill="#FAFAFA"/>
<path d="M300.29 301.664H297.641V304.494H300.29V301.664Z" fill="#FAFAFA"/>
<path d="M300.29 306.398H297.641V309.229H300.29V306.398Z" fill="#FAFAFA"/>
<path d="M274.742 233.836H272.093V236.666H274.742V233.836Z" fill="#FAFAFA"/>
<path d="M274.742 238.57H272.093V241.401H274.742V238.57Z" fill="#FAFAFA"/>
<path d="M274.742 243.336H272.093V246.166H274.742V243.336Z" fill="#FAFAFA"/>
<path d="M274.742 248.07H272.093V250.901H274.742V248.07Z" fill="#FAFAFA"/>
<path d="M274.742 252.82H272.093V255.651H274.742V252.82Z" fill="#FAFAFA"/>
<path d="M274.742 257.547H272.093V260.377H274.742V257.547Z" fill="#FAFAFA"/>
<path d="M274.742 271.789H272.093V274.619H274.742V271.789Z" fill="#FAFAFA"/>
<path d="M274.742 276.523H272.093V279.354H274.742V276.523Z" fill="#FAFAFA"/>
<path d="M274.742 281.258H272.093V284.088H274.742V281.258Z" fill="#FAFAFA"/>
<path d="M274.742 286.008H272.093V288.838H274.742V286.008Z" fill="#FAFAFA"/>
<path d="M274.742 290.766H272.093V293.596H274.742V290.766Z" fill="#FAFAFA"/>
<path d="M274.742 295.5H272.093V298.33H274.742V295.5Z" fill="#FAFAFA"/>
<path d="M274.742 300.234H272.093V303.065H274.742V300.234Z" fill="#FAFAFA"/>
<path d="M278.959 233.836H276.31V236.666H278.959V233.836Z" fill="#FAFAFA"/>
<path d="M278.959 238.57H276.31V241.401H278.959V238.57Z" fill="#FAFAFA"/>
<path d="M278.959 243.336H276.31V246.166H278.959V243.336Z" fill="#FAFAFA"/>
<path d="M278.959 248.07H276.31V250.901H278.959V248.07Z" fill="#FAFAFA"/>
<path d="M278.959 252.82H276.31V255.651H278.959V252.82Z" fill="#FAFAFA"/>
<path d="M278.959 257.547H276.31V260.377H278.959V257.547Z" fill="#FAFAFA"/>
<path d="M278.959 271.789H276.31V274.619H278.959V271.789Z" fill="#FAFAFA"/>
<path d="M278.959 276.523H276.31V279.354H278.959V276.523Z" fill="#FAFAFA"/>
<path d="M278.959 281.258H276.31V284.088H278.959V281.258Z" fill="#FAFAFA"/>
<path d="M278.959 286.008H276.31V288.838H278.959V286.008Z" fill="#FAFAFA"/>
<path d="M278.959 290.766H276.31V293.596H278.959V290.766Z" fill="#FAFAFA"/>
<path d="M278.959 295.5H276.31V298.33H278.959V295.5Z" fill="#FAFAFA"/>
<path d="M278.959 304.992H276.31V307.822H278.959V304.992Z" fill="#FAFAFA"/>
<path d="M379.749 78.7188H374.497V386.937H379.749V78.7188Z" fill="#EBEBEB"/>
<path d="M295.327 78.7188H290.881V386.937H295.327V78.7188Z" fill="#EBEBEB"/>
<path d="M211.711 78.7188H207.265V386.937H211.711V78.7188Z" fill="#EBEBEB"/>
<path d="M525.985 90.9484C537.9 90.9484 547.559 80.6293 547.559 67.9C547.559 55.1707 537.9 44.8516 525.985 44.8516C514.07 44.8516 504.411 55.1707 504.411 67.9C504.411 80.6293 514.07 90.9484 525.985 90.9484Z" fill="#E0E0E0"/>
<path d="M544.316 67.886C544.316 71.7464 543.245 75.5202 541.237 78.73C539.23 81.9399 536.376 84.4417 533.038 85.919C529.7 87.3963 526.026 87.7829 522.482 87.0297C518.938 86.2766 515.683 84.4176 513.128 81.6878C510.572 78.9581 508.832 75.4802 508.127 71.6939C507.422 67.9076 507.784 63.9831 509.167 60.4165C510.55 56.8499 512.892 53.8014 515.896 51.6567C518.901 49.5119 522.433 48.3672 526.046 48.3672C530.892 48.3672 535.539 50.4236 538.965 54.0841C542.392 57.7446 544.316 62.7093 544.316 67.886Z" fill="#F0F0F0"/>
<path d="M525.117 54.4531V68.1488L516.622 63.0089" fill="#F0F0F0"/>
<path d="M525.117 69.7691C524.856 69.7683 524.599 69.6955 524.371 69.5577L515.876 64.4177C515.524 64.202 515.268 63.8461 515.162 63.4282C515.056 63.0103 515.111 62.5646 515.312 62.1893C515.514 61.814 515.848 61.5398 516.239 61.4269C516.63 61.314 517.047 61.3718 517.398 61.5875L523.625 65.3611V54.4469C523.625 54.0155 523.786 53.6018 524.071 53.2967C524.357 52.9917 524.744 52.8203 525.148 52.8203C525.552 52.8203 525.939 52.9917 526.224 53.2967C526.51 53.6018 526.67 54.0155 526.67 54.4469V68.1426C526.671 68.4292 526.601 68.711 526.468 68.9595C526.334 69.208 526.141 69.4144 525.909 69.5577C525.668 69.7038 525.394 69.7769 525.117 69.7691Z" fill="#E0E0E0"/>
<path d="M633.657 105.094H538.287V239.578H633.657V105.094Z" fill="#F5F5F5"/>
<path d="M570.732 119.406V178.532L592.777 177.198L595.305 119.406H570.732Z" fill="#EBEBEB"/>
<path d="M588.575 130.844H622.497L622.207 182.601L604.638 182.894L588.575 130.844Z" fill="#E0E0E0"/>
<path d="M555.552 123.203H564.474L561.353 169.381L550.193 172.342L555.552 123.203Z" fill="#E6E6E6"/>
<path d="M429.246 255.984H524.311V132.398H429.246V255.984Z" fill="#E6E6E6"/>
<path d="M451.002 225.371L500.955 172.914L446.906 163.383L451.002 225.371Z" fill="#E0E0E0"/>
<path d="M499.753 212.92L502.219 172.695L464.613 182.569L461.873 213.343L499.753 212.92Z" fill="#F0F0F0"/>
<path d="M461.272 167.787C467.2 161.454 467.2 151.186 461.272 144.853C455.344 138.52 445.733 138.52 439.805 144.853C433.878 151.186 433.878 161.454 439.805 167.787C445.733 174.12 455.344 174.12 461.272 167.787Z" fill="#FAFAFA"/>
<path d="M494.835 227.279C494.835 225.722 495.267 224.2 496.077 222.905C496.887 221.61 498.037 220.601 499.384 220.006C500.73 219.41 502.212 219.254 503.641 219.558C505.071 219.861 506.384 220.611 507.414 221.712C508.445 222.813 509.147 224.216 509.431 225.743C509.716 227.27 509.57 228.853 509.012 230.292C508.454 231.73 507.51 232.96 506.298 233.825C505.086 234.69 503.661 235.151 502.204 235.151C500.25 235.151 498.375 234.322 496.993 232.846C495.611 231.369 494.835 229.367 494.835 227.279Z" fill="#E0E0E0"/>
<path d="M500.453 241.102L479.184 227.276L497.058 211.547L500.453 241.102Z" fill="#F5F5F5"/>
<path d="M475.347 148.109H471.16V246.793H475.347V148.109Z" fill="#E0E0E0"/>
<path d="M515.389 148.109H509.984V242.434H515.389V148.109Z" fill="#EBEBEB"/>
<path d="M466.425 213.359H438.792V242.882H466.425V213.359Z" fill="#EBEBEB"/>
<path d="M627.216 420.773H527.31V517.766H627.216V420.773Z" fill="#E6E6E6"/>
<path d="M642.487 412.242H629.927V532.689H642.487V412.242Z" fill="#E6E6E6"/>
<path d="M551.411 429.812H543.22V464.605H551.411V429.812Z" fill="#FAFAFA"/>
<path d="M585.348 429.812H577.156V464.605H585.348V429.812Z" fill="#F5F5F5"/>
<path d="M559.587 432.852H551.396V464.635H559.587V432.852Z" fill="#F5F5F5"/>
<path d="M577.156 432.852H568.965V464.635H577.156V432.852Z" fill="#FAFAFA"/>
<path d="M568.965 429.812H563.682V464.605H568.965V429.812Z" fill="#EBEBEB"/>
<path d="M563.682 432.852H559.587V464.635H563.682V432.852Z" fill="#FAFAFA"/>
<path d="M593.539 429.812H585.348V464.605H593.539V429.812Z" fill="#EBEBEB"/>
<path d="M601.73 432.852H593.539V464.635H601.73V432.852Z" fill="#E6E6E6"/>
<path d="M619.299 432.852H611.108V464.635H619.299V432.852Z" fill="#E6E6E6"/>
<path d="M611.093 429.812H605.81V464.605H611.093V429.812Z" fill="#FAFAFA"/>
<path d="M605.81 432.852H601.714V464.635H605.81V432.852Z" fill="#EBEBEB"/>
<path d="M623.379 430.852H619.284V464.635H623.379V430.852Z" fill="#FAFAFA"/>
<path d="M615.204 512.383H623.395V479.217H615.204V512.383Z" fill="#FAFAFA"/>
<path d="M581.252 512.383H589.443V479.217H581.252V512.383Z" fill="#FAFAFA"/>
<path d="M606.997 512.383H615.188V482.226H606.997V512.383Z" fill="#F0F0F0"/>
<path d="M589.428 512.383H597.619V482.226H589.428V512.383Z" fill="#EBEBEB"/>
<path d="M597.634 512.383H602.917V479.217H597.634V512.383Z" fill="#FAFAFA"/>
<path d="M602.917 512.383H607.013V482.226H602.917V512.383Z" fill="#F5F5F5"/>
<path d="M573.061 512.383H581.252V479.217H573.061V512.383Z" fill="#EBEBEB"/>
<path d="M564.87 512.383H573.061V482.226H564.87V512.383Z" fill="#F5F5F5"/>
<path d="M547.3 512.383H555.491V482.226H547.3V512.383Z" fill="#E6E6E6"/>
<path d="M555.507 512.383H560.79V479.217H555.507V512.383Z" fill="#FAFAFA"/>
<path d="M537.937 512.383H543.22V479.217H537.937V512.383Z" fill="#FAFAFA"/>
<path d="M560.774 512.383H564.87V482.226H560.774V512.383Z" fill="#EBEBEB"/>
<path d="M543.205 512.383H547.3V480.226H543.205V512.383Z" fill="#F0F0F0"/>
<path d="M626.714 412.242H524.143V524.931H623.364V532.673H630.063V412.307L626.714 412.242ZM623.364 512.406H530.492V471.823H623.364V512.406ZM623.364 464.666H530.492V424.75H623.364V464.666Z" fill="#F0F0F0"/>
<path d="M427.251 517.766H527.158V420.773H427.251V517.766Z" fill="#E6E6E6"/>
<path d="M431.088 532.656H443.649V523.499H431.088V532.656Z" fill="#E6E6E6"/>
<path d="M515.587 464.617H523.778V429.825H515.587V464.617Z" fill="#FAFAFA"/>
<path d="M481.65 464.617H489.841V429.825H481.65V464.617Z" fill="#F5F5F5"/>
<path d="M507.411 464.617H515.602V432.834H507.411V464.617Z" fill="#F5F5F5"/>
<path d="M489.841 464.617H498.032V432.834H489.841V464.617Z" fill="#FAFAFA"/>
<path d="M498.032 464.617H503.315V429.825H498.032V464.617Z" fill="#EBEBEB"/>
<path d="M503.315 464.617H507.411V432.834H503.315V464.617Z" fill="#FAFAFA"/>
<path d="M478.864 464.617H487.055V429.825H478.864V464.617Z" fill="#EBEBEB"/>
<path d="M470.673 464.617H478.864V432.834H470.673V464.617Z" fill="#E6E6E6"/>
<path d="M453.103 464.617H461.294V432.834H453.103V464.617Z" fill="#E6E6E6"/>
<path d="M461.309 464.617H466.593V429.825H461.309V464.617Z" fill="#FAFAFA"/>
<path d="M466.577 464.617H470.673V432.834H466.577V464.617Z" fill="#EBEBEB"/>
<path d="M449.023 464.617H453.118V430.833H449.023V464.617Z" fill="#F5F5F5"/>
<path d="M453.362 479.234H445.171V512.4H453.362V479.234Z" fill="#FAFAFA"/>
<path d="M487.298 479.234H479.107V512.4H487.298V479.234Z" fill="#FAFAFA"/>
<path d="M461.553 482.258H453.362V512.414H461.553V482.258Z" fill="#F5F5F5"/>
<path d="M479.123 482.258H470.932V512.414H479.123V482.258Z" fill="#EBEBEB"/>
<path d="M470.916 479.234H465.633V512.4H470.916V479.234Z" fill="#FAFAFA"/>
<path d="M465.634 482.258H461.538V512.414H465.634V482.258Z" fill="#F5F5F5"/>
<path d="M490.1 479.234H481.909V512.4H490.1V479.234Z" fill="#EBEBEB"/>
<path d="M498.276 482.258H490.084V512.414H498.276V482.258Z" fill="#F5F5F5"/>
<path d="M515.845 482.258H507.654V512.414H515.845V482.258Z" fill="#E6E6E6"/>
<path d="M507.654 479.234H502.371V512.4H507.654V479.234Z" fill="#FAFAFA"/>
<path d="M524.143 479.234H518.86V512.4H524.143V479.234Z" fill="#FAFAFA"/>
<path d="M502.371 482.258H498.276V512.414H502.371V482.258Z" fill="#EBEBEB"/>
<path d="M519.941 480.242H515.845V512.399H519.941V480.242Z" fill="#EBEBEB"/>
<path d="M424.389 412.242V532.608H431.088V524.866H530.309V412.242H424.389ZM431.088 471.823H523.96V512.406H431.088V471.823ZM431.088 424.75H523.96V464.666H431.088V424.75Z" fill="#F0F0F0"/>
<path d="M381.5 606.497C544.533 606.497 676.698 598.254 676.698 588.085C676.698 577.915 544.533 569.672 381.5 569.672C218.467 569.672 86.3025 577.915 86.3025 588.085C86.3025 598.254 218.467 606.497 381.5 606.497Z" fill="#F5F5F5"/>
<path d="M582.546 517.111C582.546 517.111 570.731 502.115 563.18 509.109C555.628 516.103 559.45 530.954 568.158 531.442C573.323 531.74 578.42 530.074 582.546 526.741V517.111Z" fill="#4EA0E5"/>
<path opacity="0.2" d="M582.546 517.111C582.546 517.111 570.731 502.115 563.18 509.109C555.628 516.103 559.45 530.954 568.158 531.442C573.323 531.74 578.42 530.074 582.546 526.741V517.111Z" fill="white"/>
<path d="M630.703 479.063C630.703 479.063 640.614 467.97 646.75 469.857C652.885 471.743 652.261 498.24 633.215 487.505L630.703 479.063Z" fill="#4EA0E5"/>
<path opacity="0.3" d="M630.703 479.063C630.703 479.063 640.614 467.97 646.75 469.857C652.885 471.743 652.261 498.24 633.215 487.505L630.703 479.063Z" fill="white"/>
<path d="M595.289 561.832C595.289 561.832 562.708 514.222 589.199 504.577C615.691 494.931 620.365 542.882 612.813 556.236C605.262 569.59 595.289 561.832 595.289 561.832Z" fill="#4EA0E5"/>
<path d="M610.392 464.356C610.392 464.356 630.611 414.225 600.679 412.713C570.747 411.2 567.473 462.42 601.927 469.854L610.392 464.356Z" fill="#4EA0E5"/>
<path opacity="0.3" d="M595.289 561.832C595.289 561.832 562.708 514.222 589.199 504.577C615.691 494.931 620.365 542.882 612.813 556.236C605.262 569.59 595.289 561.832 595.289 561.832Z" fill="white"/>
<path opacity="0.3" d="M610.392 464.356C610.392 464.356 630.611 414.225 600.679 412.713C570.747 411.2 567.473 462.42 601.927 469.854L610.392 464.356Z" fill="white"/>
<path d="M603.222 505.39C603.222 505.39 593.401 461.132 612.357 457.602C631.312 454.072 649.886 494.07 610.834 514.174C610.743 514.174 604.044 509.733 603.222 505.39Z" fill="#4EA0E5"/>
<path opacity="0.2" d="M603.222 505.39C603.222 505.39 593.401 461.132 612.357 457.602C631.312 454.072 649.886 494.07 610.834 514.174C610.743 514.174 604.044 509.733 603.222 505.39Z" fill="white"/>
<path d="M571.843 555.078H626.531L621.964 592.473H576.41L571.843 555.078Z" fill="#263238"/>
<path d="M600.283 460.823C589.017 452.024 581.206 435.01 587.859 420.68C587.585 422.013 587.25 423.461 586.946 424.795C584.723 438.377 591.696 451.34 600.283 460.823Z" fill="#4EA0E5"/>
<path d="M593.127 417.758C606.114 420.572 611.854 435.292 610.347 448.256C610.058 450.094 609.814 451.899 609.464 453.705C609.634 450.073 609.598 446.434 609.357 442.807C608.55 432.12 603.039 421.662 593.127 417.758Z" fill="#4EA0E5"/>
<path d="M615.965 460.812C623.258 463.561 627.825 472.117 627.84 480.217C627.84 487.277 624.186 493.685 620.106 498.955C617.132 502.782 613.732 506.207 609.981 509.154C613.294 505.759 616.349 502.087 619.116 498.175C622.511 493.295 625.496 488.009 626.242 481.99C626.881 473.63 623.06 464.716 615.889 460.845L615.965 460.812Z" fill="#4EA0E5"/>
<path d="M610.393 464.359C612.341 470.866 614.077 478.592 610.91 484.968C608.261 489.099 607.987 494.5 607.865 499.428C607.865 501.152 607.865 502.86 607.972 504.584C607.194 501.206 606.841 497.733 606.921 494.256C606.869 490.672 607.784 487.149 609.555 484.106C612.478 478.153 611.078 470.784 610.332 464.359H610.393Z" fill="#4EA0E5"/>
<path d="M597.116 509.125C604.729 513.305 607.774 541.38 607.485 550.212C607.256 548.423 606.997 546.65 606.678 544.877C605.231 536.028 603.724 527.147 601.532 518.478C600.511 515.225 599.857 511.223 597.116 509.125Z" fill="#4EA0E5"/>
<path d="M587.859 510.664C586.025 517.037 585.745 523.806 587.045 530.327C588.345 536.849 591.183 542.907 595.289 547.929C594.081 546.822 592.937 545.638 591.864 544.383C588.185 539.796 585.845 534.157 585.133 528.164C584.421 522.172 585.369 516.087 587.859 510.664Z" fill="#4EA0E5"/>
<path d="M638.391 484.463C641.863 483.471 644.816 482.576 647.343 479.844C646.719 483.991 641.786 485.943 638.391 484.463Z" fill="#4EA0E5"/>
<path d="M636.366 477.149C637.995 473.603 643.568 471.391 645.928 475.246C642.593 473.701 639.35 475.636 636.366 477.149Z" fill="#4EA0E5"/>
<path d="M577.156 519.355C573.35 516.492 569.407 511.612 564.489 514.166C568.493 509.091 575.223 514.768 577.156 519.355Z" fill="#4EA0E5"/>
<path d="M577.156 526.765C572.178 528.717 562.236 528.863 561.627 521.43C564.474 527.497 571.736 526.163 577.156 526.765Z" fill="#4EA0E5"/>
<path d="M481.452 560.038C481.713 559.472 481.842 558.846 481.828 558.215C481.813 557.584 481.655 556.966 481.368 556.414C481.08 555.862 480.672 555.393 480.177 555.047C479.683 554.701 479.117 554.488 478.529 554.427C479.033 552.817 479.066 551.081 478.623 549.45C478.179 547.82 477.281 546.372 476.047 545.302C475.754 545 475.372 544.816 474.966 544.781C474.536 544.831 474.131 545.024 473.809 545.334L466.973 550.588C466.418 550.944 465.948 551.434 465.603 552.019C464.202 554.915 469.257 558.623 467.125 561.014C466.532 561.714 465.603 561.844 464.826 562.348C463.197 563.438 462.999 565.829 462.238 567.716C461.477 569.603 458.828 571.05 457.808 569.342C458.569 567.537 456.285 565.975 454.458 565.748C452.631 565.52 450.698 565.406 449.693 563.568C447.074 566.008 441.243 559.209 441.365 556.476C440.337 556.674 439.392 557.209 438.663 558.009C437.935 558.808 437.458 559.83 437.3 560.933C437.002 563.196 436.926 565.485 437.071 567.765C437.071 572.205 435.671 576.548 435.747 580.989C435.747 584.437 437.056 588.259 440.01 589.658C441.472 590.215 443.029 590.437 444.577 590.309L478.27 590.081C479.082 590.148 479.897 590.003 480.645 589.658C482.168 588.812 482.487 586.682 482.624 584.86C483.213 577.041 483.817 569.223 484.436 561.405L481.452 560.038Z" fill="#4EA0E5"/>
<path opacity="0.3" d="M481.452 560.038C481.713 559.472 481.842 558.846 481.828 558.215C481.813 557.584 481.655 556.966 481.368 556.414C481.08 555.862 480.672 555.393 480.177 555.047C479.683 554.701 479.117 554.488 478.529 554.427C479.033 552.817 479.066 551.081 478.623 549.45C478.179 547.82 477.281 546.372 476.047 545.302C475.754 545 475.372 544.816 474.966 544.781C474.536 544.831 474.131 545.024 473.809 545.334L466.973 550.588C466.418 550.944 465.948 551.434 465.603 552.019C464.202 554.915 469.257 558.623 467.125 561.014C466.532 561.714 465.603 561.844 464.826 562.348C463.197 563.438 462.999 565.829 462.238 567.716C461.477 569.603 458.828 571.05 457.808 569.342C458.569 567.537 456.285 565.975 454.458 565.748C452.631 565.52 450.698 565.406 449.693 563.568C447.074 566.008 441.243 559.209 441.365 556.476C440.337 556.674 439.392 557.209 438.663 558.009C437.935 558.808 437.458 559.83 437.3 560.933C437.002 563.196 436.926 565.485 437.071 567.765C437.071 572.205 435.671 576.548 435.747 580.989C435.747 584.437 437.056 588.259 440.01 589.658C441.472 590.215 443.029 590.437 444.577 590.309L478.27 590.081C479.082 590.148 479.897 590.003 480.645 589.658C482.168 588.812 482.487 586.682 482.624 584.86C483.213 577.041 483.817 569.223 484.436 561.405L481.452 560.038Z" fill="white"/>
<path d="M483.507 521.914H431.149L431.575 527.558L431.895 531.592L432.686 542.067L433.143 548.102L433.737 556.104L433.996 559.553L434.087 560.578L434.392 564.611L434.818 570.158L435.077 573.59L435.336 577.087L435.64 581.121L435.884 584.179L436.143 587.611L436.249 589.107H484.223L484.33 587.611L484.588 584.195L484.832 581.105L485.137 577.071L485.395 573.59L485.654 570.158L486.081 564.595L486.385 560.578L486.461 559.553L486.72 556.104L487.329 548.102L487.786 542.083L488.577 531.592L488.882 527.558L489.308 521.914H483.507ZM486.644 525.623L485.639 524.533H486.735L486.644 525.623ZM486.385 529.038L486.294 530.405L481.604 535.398L476.245 529.673L481.041 524.533H482.168L486.385 529.038ZM485.03 546.931L481.604 550.59L476.245 544.849L481.604 539.139L485.319 543.092L485.03 546.931ZM435.29 543.092L439.005 539.139L444.364 544.849L439.005 550.59L435.594 546.931L435.29 543.092ZM479.808 537.269L474.372 542.994L469.074 537.269L474.433 531.543L479.808 537.269ZM471.327 524.533H477.417L474.372 527.786L471.327 524.533ZM472.667 544.832L467.308 550.574L461.934 544.832L467.308 539.123L472.667 544.832ZM454.839 552.428L460.213 546.703L465.557 552.428L460.213 558.154L454.839 552.428ZM458.462 560.008L453.057 565.75L447.774 560.041L453.134 554.299L458.462 560.008ZM467.308 554.283L472.698 560.041L467.339 565.766L461.964 560.041L467.308 554.283ZM460.213 542.994L454.869 537.269L460.244 531.543L465.588 537.269L460.213 542.994ZM458.462 544.832L453.103 550.574L447.744 544.832L453.103 539.123L458.462 544.832ZM445.993 542.994L440.664 537.269L446.024 531.543L451.398 537.269L445.993 542.994ZM445.993 546.703L451.368 552.428L445.993 558.154L440.634 552.428L445.993 546.703ZM451.368 567.604L445.993 573.33L440.634 567.604L445.993 561.879L451.368 567.604ZM453.088 569.459L458.462 575.184L453.103 580.926L447.744 575.184L453.088 569.459ZM454.839 567.604L460.213 561.879L465.557 567.604L460.213 573.33L454.839 567.604ZM467.308 569.459L472.667 575.184L467.308 580.926L461.934 575.184L467.308 569.459ZM474.403 577.038L479.777 582.78L476.291 586.489H472.545L469.074 582.813L474.403 577.038ZM469.044 567.604L474.403 561.879L479.777 567.604L474.372 573.33L469.044 567.604ZM469.044 552.428L474.372 546.703L479.747 552.428L474.372 558.154L469.044 552.428ZM472.667 529.657L467.308 535.382L461.934 529.657L466.745 524.517H467.871L472.667 529.657ZM460.213 527.802L457.168 524.549H463.258L460.213 527.802ZM458.462 529.657L453.103 535.382L447.744 529.657L452.54 524.517H453.666L458.462 529.657ZM449.069 524.517L446.024 527.77L442.979 524.517H449.069ZM439.462 524.517L444.257 529.657L438.898 535.382L434.224 530.388L434.133 529.022L438.335 524.517H439.462ZM434.894 524.517L433.904 525.59L433.813 524.517H434.894ZM434.559 534.439L437.193 537.236L434.955 539.627L434.559 534.439ZM436.082 553.648L435.884 550.932L437.254 552.412L436.082 553.648ZM436.34 557.113L438.99 554.266L444.349 560.008L438.99 565.734L436.828 563.424L436.34 557.113ZM437.147 567.702V567.458L437.269 567.588L437.163 567.702H437.147ZM438.076 579.917L437.406 571.134L438.929 569.507L444.288 575.233L438.929 580.958L438.015 579.982L438.076 579.917ZM438.563 586.424L438.472 585.106L438.99 584.553L440.725 586.424H438.563ZM440.725 582.715L446.084 576.973L451.459 582.715L447.972 586.424H444.197L440.725 582.715ZM451.459 586.424L453.194 584.553L454.945 586.424H451.459ZM458.401 586.424L454.869 582.813L460.244 577.071L465.588 582.813L462.192 586.489L458.401 586.424ZM465.649 586.424L467.399 584.553L469.135 586.424H465.649ZM482.015 586.424H479.853L481.589 584.553L482.107 585.106L482.015 586.424ZM482.518 579.917L481.589 580.893L476.23 575.168L481.589 569.442L483.112 571.069L482.518 579.917ZM483.462 567.442V567.702L483.355 567.588L483.492 567.442H483.462ZM483.766 563.424L481.589 565.734L476.169 560.041L481.528 554.299L484.193 557.145L483.766 563.424ZM484.512 553.665L483.325 552.412L484.71 550.932L484.512 553.665ZM486.035 534.422L485.639 539.644L483.264 537.269L485.913 534.455L486.035 534.422Z" fill="#4EA0E5"/>
<g opacity="0.6">
<path d="M483.508 521.906H431.149L431.575 527.55L431.895 531.584L432.687 542.059L433.143 548.094L433.737 556.097L433.996 559.545L434.087 560.57L434.392 564.604L434.818 570.15L435.077 573.582L435.336 577.079L435.64 581.113L435.884 584.171L436.143 587.603L436.249 589.1H484.223L484.33 587.603L484.589 584.187L484.832 581.097L485.137 577.063L485.395 573.582L485.654 570.15L486.081 564.587L486.385 560.57L486.461 559.545L486.72 556.097L487.329 548.094L487.786 542.076L488.578 531.584L488.882 527.55L489.308 521.906H483.508ZM486.644 525.615L485.639 524.525H486.735L486.644 525.615ZM486.385 529.031L486.294 530.397L481.604 535.39L476.245 529.665L481.041 524.525H482.168L486.385 529.031ZM485.03 546.923L481.604 550.583L476.245 544.841L481.604 539.132L485.319 543.084L485.03 546.923ZM435.29 543.084L439.005 539.132L444.364 544.841L439.005 550.583L435.595 546.923L435.29 543.084ZM479.808 537.261L474.373 542.987L469.074 537.261L474.434 531.536L479.808 537.261ZM471.328 524.525H477.418L474.373 527.778L471.328 524.525ZM472.667 544.825L467.308 550.566L461.934 544.825L467.308 539.115L472.667 544.825ZM454.839 552.421L460.213 546.695L465.557 552.421L460.213 558.146L454.839 552.421ZM458.462 560L453.058 565.742L447.775 560.033L453.134 554.291L458.462 560ZM467.308 554.275L472.698 560.033L467.339 565.758L461.964 560.033L467.308 554.275ZM460.213 542.987L454.869 537.261L460.244 531.536L465.588 537.261L460.213 542.987ZM458.462 544.825L453.103 550.566L447.744 544.825L453.103 539.115L458.462 544.825ZM445.993 542.987L440.664 537.261L446.024 531.536L451.398 537.261L445.993 542.987ZM445.993 546.695L451.368 552.421L445.993 558.146L440.634 552.421L445.993 546.695ZM451.368 567.596L445.993 573.322L440.634 567.596L445.993 561.871L451.368 567.596ZM453.088 569.451L458.462 575.176L453.103 580.918L447.744 575.176L453.088 569.451ZM454.839 567.596L460.213 561.871L465.557 567.596L460.213 573.322L454.839 567.596ZM467.308 569.451L472.667 575.176L467.308 580.918L461.934 575.176L467.308 569.451ZM474.403 577.031L479.777 582.772L476.291 586.481H472.546L469.074 582.805L474.403 577.031ZM469.044 567.596L474.403 561.871L479.777 567.596L474.373 573.322L469.044 567.596ZM469.044 552.421L474.373 546.695L479.747 552.421L474.373 558.146L469.044 552.421ZM472.667 529.649L467.308 535.374L461.934 529.649L466.745 524.509H467.872L472.667 529.649ZM460.213 527.794L457.168 524.541H463.258L460.213 527.794ZM458.462 529.649L453.103 535.374L447.744 529.649L452.54 524.509H453.667L458.462 529.649ZM449.069 524.509L446.024 527.762L442.979 524.509H449.069ZM439.462 524.509L444.258 529.649L438.898 535.374L434.224 530.381L434.133 529.014L438.335 524.509H439.462ZM434.894 524.509L433.905 525.582L433.813 524.509H434.894ZM434.559 534.431L437.193 537.229L434.955 539.62L434.559 534.431ZM436.082 553.641L435.884 550.924L437.254 552.404L436.082 553.641ZM436.341 557.105L438.99 554.259L444.349 560L438.99 565.726L436.828 563.416L436.341 557.105ZM437.147 567.694V567.45L437.269 567.58L437.163 567.694H437.147ZM438.076 579.91L437.406 571.126L438.929 569.5L444.288 575.225L438.929 580.951L438.015 579.975L438.076 579.91ZM438.563 586.416L438.472 585.098L438.99 584.545L440.725 586.416H438.563ZM440.725 582.707L446.085 576.966L451.459 582.707L447.972 586.416H444.197L440.725 582.707ZM451.459 586.416L453.195 584.545L454.945 586.416H451.459ZM458.402 586.416L454.869 582.805L460.244 577.063L465.588 582.805L462.193 586.481L458.402 586.416ZM465.649 586.416L467.4 584.545L469.135 586.416H465.649ZM482.016 586.416H479.854L481.589 584.545L482.107 585.098L482.016 586.416ZM482.518 579.91L481.589 580.886L476.23 575.16L481.589 569.435L483.112 571.061L482.518 579.91ZM483.462 567.434V567.694L483.355 567.58L483.492 567.434H483.462ZM483.766 563.416L481.589 565.726L476.169 560.033L481.528 554.291L484.193 557.138L483.766 563.416ZM484.512 553.657L483.325 552.404L484.71 550.924L484.512 553.657ZM486.035 534.415L485.639 539.636L483.264 537.261L485.913 534.447L486.035 534.415Z" fill="white"/>
</g>
<path d="M430.296 526.891H490.161C491.54 526.891 492.658 525.696 492.658 524.223V522.255C492.658 520.782 491.54 519.587 490.161 519.587H430.296C428.917 519.587 427.799 520.782 427.799 522.255V524.223C427.799 525.696 428.917 526.891 430.296 526.891Z" fill="#4EA0E5"/>
<path d="M485.487 585.188H434.985C433.606 585.188 432.489 586.382 432.489 587.855V589.823C432.489 591.296 433.606 592.491 434.985 592.491H485.487C486.866 592.491 487.984 591.296 487.984 589.823V587.855C487.984 586.382 486.866 585.188 485.487 585.188Z" fill="#4EA0E5"/>
<path d="M276.874 152.18H233.132C229.559 152.18 226.132 153.696 223.605 156.396C221.078 159.096 219.658 162.757 219.658 166.575V207.239C219.658 211.057 221.078 214.718 223.605 217.418C226.132 220.118 229.559 221.634 233.132 221.634H245.891L235.233 244.227L255.026 221.634H276.935C278.704 221.634 280.455 221.262 282.089 220.538C283.723 219.814 285.207 218.754 286.457 217.417C287.707 216.08 288.698 214.493 289.374 212.747C290.049 211 290.396 209.129 290.394 207.239V166.575C290.396 164.68 290.047 162.803 289.368 161.052C288.688 159.302 287.692 157.712 286.436 156.374C285.179 155.036 283.688 153.977 282.047 153.257C280.406 152.537 278.648 152.171 276.874 152.18Z" fill="#4EA0E5"/>
<path opacity="0.7" d="M276.874 152.18H233.132C229.559 152.18 226.132 153.696 223.605 156.396C221.078 159.096 219.658 162.757 219.658 166.575V207.239C219.658 211.057 221.078 214.718 223.605 217.418C226.132 220.118 229.559 221.634 233.132 221.634H245.891L235.233 244.227L255.026 221.634H276.935C278.704 221.634 280.455 221.262 282.089 220.538C283.723 219.814 285.207 218.754 286.457 217.417C287.707 216.08 288.698 214.493 289.374 212.747C290.049 211 290.396 209.129 290.394 207.239V166.575C290.396 164.68 290.047 162.803 289.368 161.052C288.688 159.302 287.692 157.712 286.436 156.374C285.179 155.036 283.688 153.977 282.047 153.257C280.406 152.537 278.648 152.171 276.874 152.18Z" fill="white"/>
<path d="M252.727 197.101C252.438 197.102 252.151 197.036 251.889 196.906C251.626 196.777 251.392 196.588 251.204 196.353L242.678 185.634C242.509 185.421 242.38 185.173 242.299 184.906C242.219 184.64 242.188 184.358 242.209 184.079C242.231 183.8 242.303 183.527 242.423 183.278C242.542 183.028 242.707 182.807 242.907 182.625C243.311 182.258 243.834 182.078 244.362 182.124C244.624 182.146 244.879 182.224 245.112 182.352C245.346 182.48 245.554 182.655 245.723 182.869L252.727 191.685L264.267 177.127C264.437 176.914 264.645 176.738 264.879 176.61C265.112 176.482 265.367 176.405 265.629 176.382C265.89 176.359 266.153 176.392 266.403 176.478C266.653 176.564 266.884 176.702 267.084 176.883C267.284 177.065 267.449 177.287 267.568 177.536C267.688 177.786 267.76 178.058 267.782 178.337C267.803 178.617 267.772 178.898 267.692 179.165C267.611 179.431 267.482 179.679 267.312 179.892L254.234 196.353C254.049 196.588 253.819 196.777 253.558 196.906C253.298 197.035 253.014 197.102 252.727 197.101Z" fill="white"/>
<path d="M270.344 203.143C278.823 194.085 278.823 179.399 270.344 170.341C261.865 161.283 248.119 161.283 239.64 170.341C231.162 179.399 231.162 194.085 239.64 203.143C248.119 212.202 261.865 212.202 270.344 203.143Z" fill="#4EA0E5"/>
<path d="M312.988 589.514H401.597C402.061 589.514 402.507 589.317 402.835 588.966C403.163 588.615 403.348 588.139 403.348 587.643V581.609C403.344 581.116 403.158 580.644 402.83 580.297C402.502 579.949 402.059 579.755 401.597 579.755H317.555V386.486H400.166C401.007 386.486 401.814 386.13 402.411 385.496C403.007 384.862 403.344 384.002 403.348 383.103V376.727H312.988C311.776 376.727 310.614 377.241 309.758 378.156C308.901 379.071 308.42 380.312 308.42 381.606V584.634C308.42 585.928 308.901 587.17 309.758 588.085C310.614 589 311.776 589.514 312.988 589.514Z" fill="#263238"/>
<g opacity="0.3">
<path d="M308.42 381.606V584.618C308.42 585.912 308.901 587.153 309.758 588.068C310.615 588.984 311.776 589.498 312.988 589.498H401.597C402.058 589.498 402.499 589.302 402.824 588.955C403.15 588.607 403.333 588.135 403.333 587.643V581.609C403.333 581.116 403.15 580.642 402.825 580.292C402.5 579.942 402.059 579.743 401.597 579.738H317.555V386.486H400.166C401.007 386.482 401.813 386.122 402.406 385.485C403 384.847 403.333 383.985 403.333 383.086V376.727H312.988C311.776 376.727 310.615 377.241 309.758 378.156C308.901 379.071 308.42 380.312 308.42 381.606Z" fill="white"/>
</g>
<path opacity="0.2" d="M308.42 381.606V433.38C311.465 434.204 314.51 435.001 317.555 435.771V386.486H400.166C401.007 386.482 401.813 386.122 402.406 385.485C403 384.847 403.333 383.985 403.333 383.086V376.727H312.988C311.776 376.727 310.614 377.241 309.758 378.156C308.901 379.071 308.42 380.312 308.42 381.606Z" fill="black"/>
<path d="M148.177 562.263L184.504 558.88V507.984H197.278V558.945L233.818 562.263C235.368 562.424 236.807 563.197 237.854 564.43C238.901 565.662 239.481 567.267 239.481 568.932V574.104H142.468V568.932C142.469 567.26 143.055 565.648 144.112 564.414C145.168 563.18 146.618 562.413 148.177 562.263Z" fill="#263238"/>
<path opacity="0.1" d="M148.177 562.263L184.504 558.88V507.984H197.278V558.945L233.818 562.263C235.368 562.424 236.807 563.197 237.854 564.43C238.901 565.662 239.481 567.267 239.481 568.932V574.104H142.468V568.932C142.469 567.26 143.055 565.648 144.112 564.414C145.168 563.18 146.618 562.413 148.177 562.263Z" fill="white"/>
<path d="M227.636 580.531C227.636 582.298 228.126 584.024 229.045 585.493C229.963 586.961 231.269 588.106 232.796 588.782C234.323 589.457 236.004 589.634 237.625 589.29C239.247 588.945 240.736 588.095 241.905 586.846C243.074 585.597 243.87 584.006 244.193 582.274C244.515 580.541 244.35 578.746 243.717 577.114C243.084 575.482 242.013 574.088 240.639 573.107C239.264 572.125 237.648 571.602 235.995 571.602C234.897 571.599 233.809 571.829 232.794 572.277C231.779 572.725 230.856 573.383 230.08 574.212C229.303 575.042 228.688 576.027 228.268 577.112C227.849 578.196 227.634 579.358 227.636 580.531Z" fill="#263238"/>
<path d="M154.267 580.531C154.267 582.298 153.776 584.025 152.857 585.494C151.938 586.963 150.632 588.108 149.103 588.783C147.575 589.458 145.894 589.634 144.272 589.288C142.65 588.943 141.161 588.09 139.993 586.84C138.824 585.59 138.029 583.997 137.709 582.264C137.388 580.53 137.555 578.734 138.19 577.103C138.825 575.471 139.899 574.078 141.276 573.099C142.652 572.119 144.27 571.598 145.924 571.602C147.02 571.602 148.107 571.833 149.12 572.282C150.133 572.731 151.054 573.389 151.829 574.218C152.603 575.048 153.218 576.032 153.636 577.115C154.055 578.199 154.269 579.36 154.267 580.531Z" fill="#263238"/>
<path d="M193.821 518.32H187.96C186.462 518.32 185.025 517.685 183.966 516.553C182.907 515.421 182.311 513.886 182.311 512.286V468.368H199.47V512.286C199.47 513.886 198.875 515.421 197.816 516.553C196.756 517.685 195.32 518.32 193.821 518.32Z" fill="#263238"/>
<path opacity="0.2" d="M193.821 518.32H187.96C186.462 518.32 185.025 517.685 183.966 516.553C182.907 515.421 182.311 513.886 182.311 512.286V468.368H199.47V512.286C199.47 513.886 198.875 515.421 197.816 516.553C196.756 517.685 195.32 518.32 193.821 518.32Z" fill="white"/>
<path d="M153.216 367.555C153.216 367.555 157.144 451.86 174.136 466.369H155.957C155.957 466.369 139.757 437.643 138.555 367.555H153.216Z" fill="#263238"/>
<path opacity="0.1" d="M153.216 367.555C153.216 367.555 157.144 451.86 174.136 466.369H155.957C155.957 466.369 139.757 437.643 138.555 367.555H153.216Z" fill="white"/>
<path d="M151.74 459.375H232.295C234.108 459.375 235.847 460.144 237.129 461.514C238.411 462.884 239.131 464.741 239.131 466.678V473.347H144.888V466.678C144.888 465.718 145.066 464.767 145.41 463.88C145.755 462.993 146.26 462.187 146.896 461.508C147.532 460.83 148.288 460.292 149.119 459.926C149.95 459.56 150.841 459.373 151.74 459.375Z" fill="#4EA0E5"/>
<path d="M239.984 466.359H144.066C142.544 466.359 141.31 467.677 141.31 469.303V470.393C141.31 472.019 142.544 473.337 144.066 473.337H239.984C241.506 473.337 242.739 472.019 242.739 470.393V469.303C242.739 467.677 241.506 466.359 239.984 466.359Z" fill="#263238"/>
<path opacity="0.6" d="M239.984 466.359H144.066C142.544 466.359 141.31 467.677 141.31 469.303V470.393C141.31 472.019 142.544 473.337 144.066 473.337H239.984C241.506 473.337 242.739 472.019 242.739 470.393V469.303C242.739 467.677 241.506 466.359 239.984 466.359Z" fill="white"/>
<path d="M135.357 386.003H164.483C173.009 386.003 179.16 377.87 178.185 367.704L176.952 354.236C176.008 344.135 168.35 335.938 159.824 335.938H130.744C122.218 335.938 116.067 344.07 117.042 354.236L118.275 367.704C119.158 377.87 126.831 386.003 135.357 386.003Z" fill="#4EA0E5"/>
<path d="M231.473 313.266C233.285 319.398 235.416 325.79 237.761 331.646C239.74 336.526 242.557 342.739 245.769 346.008C248.692 348.79 255.65 349.847 260.172 350.481C266.262 351.311 272.748 351.62 279.066 351.897L280.193 361.005C273.495 362.926 266.626 364.087 259.7 364.47C251.966 364.763 242.953 364.47 236.254 359.395C226.525 351.262 222.292 340.429 217.984 328.995C216.766 325.367 215.669 322.049 214.741 318.243L231.488 313.266H231.473Z" fill="#B65B52"/>
<path d="M223.998 304.672C228.794 306.429 233.133 313.797 245.206 343.352C245.206 343.352 247.17 346.963 256.96 349.224L256.061 365.814C256.061 365.814 242.085 365.164 238.842 362.773C235.599 360.382 216.157 326.208 216.157 326.208L223.998 304.672Z" fill="#263238"/>
<path opacity="0.2" d="M256.96 349.256L256.061 365.847C256.061 365.847 244.856 365.327 240.182 363.489C239.711 363.32 239.261 363.091 238.842 362.805C236.969 361.406 229.707 349.386 223.845 339.497C219.598 332.307 216.233 326.24 216.233 326.24L223.998 304.672C228.793 306.429 233.133 313.797 245.221 343.335C245.221 343.368 247.17 346.963 256.96 349.256Z" fill="white"/>
<path opacity="0.2" d="M240.182 363.479C239.711 363.31 239.261 363.081 238.842 362.796C236.969 361.397 229.707 349.376 223.845 339.487C225.371 333.88 227.175 328.363 229.25 322.961C229.25 322.961 240.395 346.823 240.182 363.479Z" fill="black"/>
<path d="M275.747 352.728L286.664 348.531L285.324 364.146C285.324 364.146 275.306 365.513 274.073 359.885L275.747 352.728Z" fill="#B55B52"/>
<path d="M295.707 351.687L294.032 364.553L285.324 364.146L286.664 348.531L295.707 351.687Z" fill="#B55B52"/>
<path d="M257.036 348.531L262.608 350.32L260.568 366.456L254.996 367.481L257.036 348.531Z" fill="#263238"/>
<path d="M231.899 407.289C231.899 407.289 305.573 438.34 322.701 451.32C339.829 464.3 383.023 551.809 383.023 551.809L365.164 566.449C365.164 566.449 313.642 486.519 307.309 481.103C300.975 475.686 219.004 448.799 219.004 448.799L231.899 407.289Z" fill="#4EA0E5"/>
<path opacity="0.4" d="M383.023 551.804L365.164 566.443C365.164 566.443 353.136 547.786 339.997 527.893C325.944 506.601 310.612 483.976 307.354 481.097C302.787 477.128 257.645 461.676 233.726 453.673C224.926 450.712 219.004 448.793 219.004 448.793L231.884 407.234C231.884 407.234 305.543 438.286 322.686 451.266C339.829 464.246 383.023 551.804 383.023 551.804Z" fill="white"/>
<path d="M386.296 583.108L394.898 573.869L380.83 550.625L372.243 559.864L386.296 583.108Z" fill="#B55B52"/>
<path opacity="0.2" d="M372.243 559.871L380.83 550.648L388.869 563.937L379.978 572.688L372.243 559.871Z" fill="black"/>
<path d="M396.39 572.867C396.39 572.867 396.39 572.867 396.497 572.867C397.51 572.47 398.479 571.958 399.39 571.339C400.098 570.933 400.641 570.261 400.912 569.452C400.968 569.148 400.942 568.834 400.837 568.546C400.732 568.258 400.552 568.008 400.318 567.825C400.193 567.686 400.036 567.582 399.863 567.525C399.69 567.469 399.506 567.46 399.329 567.5C398.491 567.711 397.669 568.98 397.045 570.2C397.177 569.061 396.929 567.909 396.345 566.947C396.174 566.763 395.95 566.646 395.709 566.617C395.468 566.587 395.225 566.646 395.02 566.784C394.829 566.88 394.662 567.023 394.532 567.201C394.402 567.379 394.314 567.587 394.274 567.809C393.924 569.566 396.131 572.396 396.238 572.558L396.39 572.396L396.253 572.575C396.253 572.575 396.147 572.754 396.147 572.77C396.169 572.815 396.206 572.85 396.251 572.867C396.296 572.885 396.345 572.885 396.39 572.867ZM396.466 571.664C396.466 571.761 396.39 571.859 396.36 571.94C395.69 570.932 394.7 569.159 394.913 568.118C394.931 567.996 394.973 567.879 395.036 567.775C395.099 567.672 395.182 567.583 395.279 567.516H395.385C395.751 567.321 395.949 567.435 396.07 567.516C396.653 568.806 396.793 570.274 396.466 571.664ZM396.984 572.054C397.654 570.428 398.765 568.313 399.603 568.118C399.69 568.094 399.782 568.097 399.868 568.126C399.954 568.154 400.031 568.208 400.09 568.281C400.232 568.398 400.343 568.552 400.413 568.729C400.482 568.906 400.507 569.099 400.486 569.289C400.318 570.135 399.024 571.143 396.984 572.054Z" fill="#4EA0E5"/>
<path d="M394.731 572.036L383.373 580.169C383.275 580.231 383.189 580.313 383.121 580.411C383.053 580.509 383.004 580.62 382.977 580.738C382.95 580.857 382.946 580.979 382.964 581.1C382.982 581.22 383.023 581.335 383.083 581.438L388.564 591.441C388.878 591.947 389.367 592.3 389.923 592.422C390.48 592.544 391.059 592.425 391.533 592.092C395.446 589.18 397.182 587.586 402.191 583.959C406.751 580.963 411.111 577.631 415.239 573.988C418.984 570.263 415.437 566.408 413.549 567.628C408.981 570.507 401.247 571.744 396.893 571.402C396.125 571.338 395.36 571.562 394.731 572.036Z" fill="#263238"/>
<path d="M366.001 572.902L388.306 557.043L383.16 545.836L358.997 563.744L366.001 572.902Z" fill="#4EA0E5"/>
<path opacity="0.2" d="M366.001 572.902L388.306 557.043L383.16 545.836L358.997 563.744L366.001 572.902Z" fill="white"/>
<path opacity="0.2" d="M340.027 527.955C325.974 506.663 310.643 484.037 307.385 481.158C302.817 477.19 257.675 461.737 233.757 453.734L230.97 422.83L239.71 421.203L240.699 423.578C240.699 423.578 295.296 436.802 310.734 445.065C320.676 450.286 334.028 502.466 340.027 527.955Z" fill="black"/>
<path d="M336.754 575.964C336.771 575.971 336.789 575.975 336.807 575.975C336.825 575.975 336.844 575.971 336.86 575.964C337.942 575.95 339.019 575.814 340.073 575.557C340.879 575.435 341.613 574.994 342.128 574.321C342.28 574.062 342.36 573.763 342.36 573.459C342.36 573.154 342.28 572.855 342.128 572.597C342.053 572.419 341.936 572.264 341.79 572.148C341.644 572.031 341.472 571.956 341.291 571.93C340.438 571.816 339.266 572.743 338.246 573.67C338.712 572.661 338.826 571.507 338.566 570.417C338.464 570.183 338.291 569.993 338.076 569.878C337.86 569.763 337.614 569.729 337.378 569.783C337.17 569.816 336.97 569.896 336.792 570.016C336.613 570.137 336.461 570.295 336.343 570.482C335.475 572.027 336.678 575.476 336.739 575.671L336.921 575.557L336.739 575.687C336.739 575.687 336.571 575.817 336.586 575.833L336.754 575.964ZM337.211 574.841L337.013 575.069C336.54 573.748 336.476 572.3 336.83 570.937C336.887 570.832 336.964 570.74 337.056 570.667C337.147 570.594 337.252 570.542 337.363 570.515H337.5C337.896 570.515 338.048 570.645 338.109 570.807C338.262 572.223 337.944 573.651 337.211 574.841ZM337.561 575.394C338.703 574.093 340.408 572.499 341.26 572.613C341.35 572.623 341.435 572.658 341.508 572.715C341.58 572.773 341.637 572.849 341.672 572.938C341.757 573.105 341.802 573.293 341.802 573.483C341.802 573.673 341.757 573.861 341.672 574.028C341.306 574.76 339.784 575.264 337.561 575.394Z" fill="#4EA0E5"/>
<path d="M324.056 582.043L335.033 576.366L328.502 548.422L317.54 554.099L324.056 582.043Z" fill="#B55B52"/>
<path opacity="0.2" d="M317.54 554.098L328.502 548.438L332.232 564.41L321.118 569.502L317.54 554.098Z" fill="black"/>
<path d="M335.445 574.573L322.199 578.233C322.087 578.256 321.981 578.303 321.887 578.37C321.792 578.438 321.711 578.525 321.649 578.627C321.587 578.728 321.544 578.842 321.523 578.962C321.503 579.081 321.505 579.204 321.529 579.322L323.6 590.708C323.75 591.288 324.106 591.783 324.592 592.087C325.078 592.39 325.656 592.479 326.203 592.335C330.771 590.968 332.932 590.074 338.748 588.415C343.962 587.226 349.091 585.644 354.095 583.682C358.785 581.502 356.638 576.606 354.476 577.094C349.33 578.216 341.58 576.606 337.591 574.735C336.91 574.437 336.158 574.38 335.445 574.573Z" fill="#263238"/>
<path d="M333.846 553.725C333.846 553.725 315.271 454.163 311.465 448.242C305.284 438.483 230.955 422.754 230.955 422.754L239.679 421.128L229.6 392.5L163.417 395.281C163.417 395.281 164.803 441.996 171.532 454.521C178.262 467.046 277.818 472.804 284.288 475.666C290.759 478.529 310.506 556.62 310.506 556.62L333.846 553.725Z" fill="#4EA0E5"/>
<path opacity="0.4" d="M333.846 553.725C333.846 553.725 315.271 454.163 311.465 448.242C305.284 438.483 230.955 422.754 230.955 422.754L239.679 421.128L229.6 392.5L163.417 395.281C163.417 395.281 164.803 441.996 171.532 454.521C178.262 467.046 277.818 472.804 284.288 475.666C290.759 478.529 310.506 556.62 310.506 556.62L333.846 553.725Z" fill="white"/>
<path d="M310.902 565.43L336.876 558.371L335.49 545.977L307.141 554.321L310.902 565.43Z" fill="#4EA0E5"/>
<path opacity="0.2" d="M310.902 565.43L336.876 558.371L335.49 545.977L307.141 554.321L310.902 565.43Z" fill="white"/>
<path d="M184.367 396.357L165.183 396.016L164.772 402.213L185.189 402.733L184.367 396.357Z" fill="#263238"/>
<path d="M187.32 396.253L188.158 402.694L230.971 402.044L229.585 396.172L187.32 396.253Z" fill="#263238"/>
<path d="M207.935 397.383L208.483 401.628C208.563 402.146 208.815 402.617 209.192 402.954C209.569 403.291 210.047 403.473 210.539 403.466L217.39 403.238C217.617 403.243 217.841 403.193 218.048 403.092C218.254 402.992 218.437 402.844 218.583 402.658C218.729 402.473 218.834 402.255 218.891 402.02C218.948 401.786 218.955 401.54 218.912 401.303L218.349 397.041C218.269 396.524 218.017 396.055 217.639 395.721C217.262 395.386 216.784 395.208 216.294 395.219L209.458 395.447C209.231 395.443 209.006 395.492 208.8 395.593C208.593 395.693 208.41 395.841 208.264 396.027C208.118 396.212 208.013 396.43 207.956 396.665C207.899 396.899 207.892 397.145 207.935 397.383Z" fill="white"/>
<path d="M165.092 395.112H227.971C228.724 395.116 229.452 394.823 230.014 394.289C230.576 393.754 230.934 393.016 231.016 392.216C238.781 327.154 223.952 304.691 223.952 304.691C218.306 302.968 212.544 301.712 206.717 300.933C198.203 300.218 189.659 300.022 181.124 300.348C175.31 300.515 169.514 301.129 163.783 302.186C160.738 303.601 157.586 318.094 160.738 363.247C161.56 375.072 161.682 385.287 161.606 391.273C161.593 392.275 161.953 393.242 162.607 393.962C163.26 394.681 164.154 395.094 165.092 395.112Z" fill="#263238"/>
<path d="M215.182 327.719H227.301L228.215 343.171L221.714 347.677L215.182 344.228V327.719Z" fill="#263238"/>
<path opacity="0.2" d="M231.062 392.233C230.979 393.032 230.622 393.771 230.06 394.305C229.497 394.84 228.77 395.133 228.017 395.128H165.138C164.667 395.131 164.2 395.033 163.765 394.84C163.33 394.648 162.935 394.364 162.603 394.007C162.271 393.65 162.01 393.225 161.833 392.759C161.657 392.292 161.569 391.793 161.575 391.29C161.575 385.304 161.575 375.024 160.722 363.264C160.286 356.758 159.966 350.88 159.763 345.632C159.267 336.03 159.318 326.405 159.916 316.809C160.677 307.05 162.245 302.935 163.828 302.17C169.58 301.111 175.396 300.497 181.231 300.332C189.76 300.007 198.3 300.202 206.809 300.918C212.62 301.699 218.366 302.955 223.998 304.675C223.998 304.675 238.827 327.236 231.062 392.233Z" fill="white"/>
<path d="M181.748 299.689L202.058 307.089L202.88 300.876C200.901 297.167 200.399 294.825 202.073 290.515L188.523 273.875C188.873 282.398 187.427 294.044 181.748 299.689Z" fill="#B55B52"/>
<path d="M194.598 310.302L198.587 312.075L202.058 314.401C202.058 314.401 206.702 342.801 205.408 366.777L209.305 370.193L213.416 366.663C213.416 366.663 208.301 322.632 206.458 314.06L207.265 311.994L209.138 307.732L205.682 305.797L200.186 307.082H196.349L194.598 310.302Z" fill="white"/>
<path opacity="0.2" d="M194.035 280.656L202.058 290.513C201.456 292.024 200.972 293.585 200.612 295.181C197.217 294.092 192.999 289.261 193.197 285.324C193.208 283.727 193.492 282.145 194.035 280.656Z" fill="black"/>
<path d="M183.012 295.758C188.744 299.835 194.869 303.243 201.282 305.924C201.982 302.895 201.982 299.73 201.282 296.701L210.249 301.483C210.249 301.483 210.995 308.917 208.94 312.869L202.348 307.713L194.948 314.219C194.948 314.219 180.941 308.445 178.749 300.605L183.012 295.758Z" fill="#263238"/>
<path opacity="0.2" d="M228.702 353.463L207.935 371.356C178.125 378.448 165.016 358.587 159.748 345.575C159.251 335.973 159.302 326.347 159.9 316.752C167.056 316.394 175.963 316.394 178.368 318.378C182.555 321.81 197.141 345.867 199.318 347.657C201.495 349.446 228.702 353.463 228.702 353.463Z" fill="black"/>
<path d="M240.517 352.611L251.433 348.398L250.093 364.013C250.093 364.013 240.075 365.38 238.842 359.752L240.517 352.611Z" fill="#B55B52"/>
<path d="M260.461 351.554L258.802 364.42L250.093 364.013L251.433 348.398L260.461 351.554Z" fill="#B55B52"/>
<path d="M177.013 321.103C180.233 327.899 183.791 334.507 187.671 340.898C190.057 345.077 193.048 348.827 196.532 352.008C196.795 352.252 197.1 352.44 197.43 352.561C201.243 353.638 205.18 354.131 209.123 354.025C220.176 354.138 231.427 353.049 242.526 352.04L244.338 361.019C236.903 363.607 229.32 365.688 221.638 367.249C213.31 368.875 205.712 370.095 196.851 369.184C193.993 368.865 191.218 367.965 188.676 366.533C178.81 360.368 172.765 350.397 167.041 340.508C164.985 336.669 163.113 333.091 161.377 328.992L177.059 321.07L177.013 321.103Z" fill="#B65B52"/>
<path d="M163.783 302.203C144.142 309.767 169.614 362.044 180.332 367.9C191.051 373.756 209.138 371.365 209.138 371.365L210.417 353.196C210.417 353.196 201.038 351.976 198.237 351.26C193.776 350.122 184.763 329.074 178.688 317.639C175.335 310.969 170.127 305.576 163.783 302.203Z" fill="#263238"/>
<path opacity="0.2" d="M163.783 302.203C144.142 309.767 169.614 362.044 180.332 367.9C191.051 373.756 209.138 371.365 209.138 371.365L210.417 353.196C210.417 353.196 201.038 351.976 198.237 351.26C193.776 350.122 184.763 329.074 178.688 317.639C175.335 310.969 170.127 305.576 163.783 302.203Z" fill="white"/>
<path d="M207.89 351.828L206.306 372.925L211.939 371.802L213.416 352.95L207.89 351.828Z" fill="#263238"/>
<path d="M223.434 256.733C224.211 261.612 222.247 271.079 216.537 267.078C210.828 263.076 222.079 248.372 223.434 256.733Z" fill="#263238"/>
<path d="M191.188 258.473C188.995 270.38 187.138 277.228 191.188 284.742C197.278 296.031 212.244 294.307 217.74 283.327C222.688 273.421 225.444 255.676 215.807 248.08C213.672 246.417 211.179 245.358 208.559 245.002C205.938 244.645 203.276 245.001 200.82 246.039C198.363 247.076 196.192 248.76 194.508 250.934C192.824 253.108 191.682 255.701 191.188 258.473Z" fill="#B55B52"/>
<path d="M185.828 245.345L198.45 244.727L198.785 252.469L198.039 252.03C198.039 252.03 197.247 263.416 191.203 267.206C183.027 260.537 180.621 249.623 185.828 245.345Z" fill="#263238"/>
<path d="M184.519 267.066C184.598 268.569 184.955 270.039 185.569 271.393C186.183 272.747 187.042 273.958 188.097 274.955C190.944 277.606 194.019 275.313 194.613 271.539C195.146 268.14 194.309 262.658 190.792 261.455C190.015 261.211 189.194 261.176 188.402 261.353C187.61 261.53 186.871 261.913 186.25 262.468C185.63 263.023 185.147 263.733 184.845 264.535C184.543 265.337 184.431 266.207 184.519 267.066Z" fill="#B55B52"/>
<path d="M207.052 266.234C206.809 267.193 207.052 268.088 207.692 268.251C208.331 268.413 208.94 267.763 209.214 266.803C209.488 265.843 209.214 264.949 208.575 264.802C207.935 264.656 207.281 265.29 207.052 266.234Z" fill="#263238"/>
<path d="M217.177 268.973C216.948 269.916 217.177 270.827 217.816 270.973C218.455 271.12 219.08 270.485 219.339 269.542C219.597 268.598 219.339 267.688 218.699 267.525C218.06 267.362 217.42 268.013 217.177 268.973Z" fill="#263238"/>
<path d="M213.842 268.578C214.255 271.694 215.075 274.733 216.278 277.606C215.552 277.881 214.779 277.99 214.011 277.925C213.242 277.861 212.495 277.625 211.818 277.231L213.842 268.578Z" fill="#A02724"/>
<path d="M206.123 279.579C206.493 279.746 206.875 279.882 207.265 279.985C207.336 280.001 207.409 279.988 207.471 279.949C207.533 279.91 207.579 279.847 207.6 279.774C207.609 279.737 207.611 279.698 207.606 279.659C207.601 279.621 207.589 279.584 207.571 279.551C207.552 279.518 207.528 279.489 207.499 279.466C207.47 279.442 207.437 279.426 207.402 279.416C206.285 279.15 205.243 278.602 204.364 277.818C203.484 277.034 202.793 276.037 202.347 274.911C202.32 274.84 202.269 274.782 202.205 274.749C202.14 274.716 202.066 274.71 201.997 274.732C201.962 274.742 201.929 274.761 201.901 274.786C201.873 274.812 201.85 274.843 201.835 274.878C201.819 274.914 201.81 274.952 201.809 274.991C201.808 275.031 201.815 275.07 201.83 275.106C202.217 276.128 202.798 277.053 203.537 277.823C204.276 278.593 205.157 279.191 206.123 279.579Z" fill="#263238"/>
<path d="M204.783 261.912C204.872 261.948 204.969 261.958 205.062 261.941C205.156 261.924 205.244 261.88 205.316 261.814C205.842 261.347 206.463 261.017 207.129 260.85C207.795 260.684 208.488 260.685 209.153 260.855C209.221 260.88 209.293 260.89 209.365 260.885C209.436 260.88 209.506 260.859 209.57 260.824C209.634 260.789 209.691 260.741 209.737 260.682C209.783 260.623 209.818 260.554 209.838 260.481C209.862 260.41 209.872 260.336 209.868 260.261C209.864 260.186 209.845 260.113 209.814 260.046C209.783 259.979 209.739 259.92 209.686 259.872C209.632 259.823 209.57 259.787 209.503 259.765C208.666 259.526 207.788 259.507 206.943 259.708C206.097 259.909 205.31 260.325 204.646 260.92C204.589 260.966 204.542 261.024 204.506 261.09C204.47 261.157 204.448 261.23 204.439 261.306C204.431 261.382 204.437 261.459 204.456 261.532C204.476 261.605 204.51 261.674 204.555 261.733C204.618 261.81 204.696 261.871 204.783 261.912Z" fill="#263238"/>
<path d="M222.46 266.432C222.552 266.467 222.652 266.476 222.749 266.458C222.846 266.44 222.936 266.395 223.012 266.327C223.087 266.26 223.145 266.172 223.179 266.074C223.213 265.975 223.222 265.869 223.206 265.765C223.045 264.862 222.685 264.013 222.155 263.289C221.626 262.565 220.942 261.986 220.161 261.601C220.025 261.547 219.875 261.55 219.742 261.611C219.609 261.671 219.503 261.784 219.445 261.926C219.395 262.069 219.399 262.227 219.455 262.366C219.512 262.506 219.618 262.617 219.75 262.674C220.356 262.976 220.886 263.429 221.294 263.995C221.702 264.562 221.976 265.224 222.094 265.928C222.107 266.039 222.147 266.145 222.212 266.234C222.276 266.323 222.362 266.391 222.46 266.432Z" fill="#263238"/>
<path d="M194.141 254.924C194.384 255.143 194.643 255.339 194.918 255.509C195.649 255.976 196.478 256.24 197.329 256.277C198.18 256.314 199.026 256.123 199.79 255.721C202.926 254.094 203.916 244.53 212.838 249.393C213.818 249.141 214.845 249.197 215.796 249.555C216.747 249.913 217.581 250.557 218.197 251.41C220.496 254.42 218.912 265.399 223.815 263.886C228.717 262.373 227.865 260.747 227.865 260.747C227.865 260.747 226.494 261.674 225.688 260.942C226.414 260.289 226.933 259.41 227.17 258.428C227.407 257.445 227.352 256.408 227.012 255.461C227.012 255.461 225.825 256.973 225.033 256.68C225.851 252.239 225.378 247.636 223.678 243.489C220.831 235.909 203.413 237.601 203.413 237.601C203.413 237.601 201.221 233.681 193.35 236.413C185.478 239.146 181.885 249.28 183.134 253.688" fill="#263238"/>
<path d="M298.067 362.812L296.94 358.273H250.763L229.509 360.534L228.702 362.812H298.067Z" fill="#263238"/>
<path opacity="0.5" d="M298.067 362.812L296.94 358.273H250.763L229.509 360.534L228.702 362.812H298.067Z" fill="white"/>
<path opacity="0.2" d="M250.763 358.273V362.812H298.067L296.94 358.273H250.763Z" fill="black"/>
<path d="M266.384 336.538C266.323 337.088 266.373 337.646 266.53 338.174C266.688 338.702 266.949 339.188 267.296 339.599C267.644 340.01 268.07 340.337 268.545 340.558C269.02 340.779 269.535 340.889 270.053 340.881H340.788C341.894 340.853 342.952 340.397 343.767 339.598C344.582 338.8 345.098 337.712 345.219 336.538L349.421 288.164C349.461 287.696 349.43 287.223 349.33 286.765C349.136 285.913 348.676 285.156 348.025 284.621C347.375 284.086 346.573 283.804 345.752 283.821H275.016C273.911 283.849 272.853 284.305 272.038 285.104C271.223 285.903 270.707 286.99 270.586 288.164L266.384 336.538Z" fill="#263238"/>
<path opacity="0.5" d="M266.384 336.538C266.323 337.088 266.373 337.646 266.53 338.174C266.688 338.702 266.949 339.188 267.296 339.599C267.644 340.01 268.07 340.337 268.545 340.558C269.02 340.779 269.535 340.889 270.053 340.881H340.788C341.894 340.853 342.952 340.397 343.767 339.598C344.582 338.8 345.098 337.712 345.219 336.538L349.421 288.164C349.461 287.696 349.43 287.223 349.33 286.765C349.136 285.913 348.676 285.156 348.025 284.621C347.375 284.086 346.573 283.804 345.752 283.821H275.016C273.911 283.849 272.853 284.305 272.038 285.104C271.223 285.903 270.707 286.99 270.586 288.164L266.384 336.538Z" fill="white"/>
<path opacity="0.1" d="M270.358 340.874H340.834C341.94 340.845 342.998 340.39 343.813 339.591C344.627 338.792 345.143 337.705 345.265 336.531L349.467 288.157C349.507 287.688 349.476 287.216 349.375 286.758H278.884C277.781 286.79 276.726 287.247 275.915 288.046C275.103 288.844 274.589 289.929 274.468 291.101L270.266 339.475C270.218 339.943 270.249 340.417 270.358 340.874Z" fill="black"/>
<path d="M318.895 311.203H304.264L308.161 355.966L285.035 359.675V362.798H333.77V359.675L323.782 355.966L318.895 311.203Z" fill="#263238"/>
<path opacity="0.5" d="M318.895 311.203H304.264L308.161 355.966L285.035 359.675V362.798H333.77V359.675L323.782 355.966L318.895 311.203Z" fill="white"/>
<path opacity="0.2" d="M304.263 311.203L315.104 362.082L323.782 361.806L318.895 311.203H304.263Z" fill="white"/>
<path d="M183.484 589.514H272.093C272.322 589.514 272.549 589.465 272.761 589.371C272.972 589.277 273.164 589.139 273.326 588.965C273.487 588.791 273.615 588.585 273.701 588.358C273.787 588.131 273.831 587.888 273.829 587.643V581.609C273.829 581.117 273.646 580.645 273.32 580.298C272.995 579.95 272.553 579.755 272.093 579.755H188.051V386.486H270.662C271.502 386.486 272.307 386.13 272.901 385.495C273.495 384.861 273.829 384 273.829 383.103V376.727H183.484C182.272 376.727 181.11 377.241 180.254 378.156C179.397 379.071 178.916 380.312 178.916 381.606V584.634C178.916 585.928 179.397 587.17 180.254 588.085C181.11 589 182.272 589.514 183.484 589.514Z" fill="#263238"/>
<g opacity="0.4">
<path d="M183.484 589.514H272.093C272.322 589.514 272.549 589.465 272.761 589.371C272.972 589.277 273.164 589.139 273.326 588.965C273.487 588.791 273.615 588.585 273.701 588.358C273.787 588.131 273.831 587.888 273.829 587.643V581.609C273.829 581.117 273.646 580.645 273.32 580.298C272.995 579.95 272.553 579.755 272.093 579.755H188.051V386.486H270.662C271.502 386.486 272.307 386.13 272.901 385.495C273.495 384.861 273.829 384 273.829 383.103V376.727H183.484C182.272 376.727 181.11 377.241 180.254 378.156C179.397 379.071 178.916 380.312 178.916 381.606V584.634C178.916 585.928 179.397 587.17 180.254 588.085C181.11 589 182.272 589.514 183.484 589.514Z" fill="white"/>
</g>
<path d="M405.708 378.359L172.126 378.359C171.342 378.359 170.591 378.027 170.037 377.435C169.483 376.843 169.172 376.041 169.172 375.204V367.526L408.661 367.526V375.22C408.657 376.054 408.344 376.853 407.791 377.441C407.237 378.029 406.488 378.359 405.708 378.359Z" fill="#4EA0E5"/>
<path opacity="0.2" d="M169.172 372.93L408.661 372.93V367.513L169.172 367.513V372.93Z" fill="black"/>
<path d="M164.163 368.896H413.701C414.457 368.897 415.183 368.577 415.719 368.007C416.256 367.437 416.559 366.663 416.563 365.855C416.563 365.044 416.262 364.266 415.725 363.693C415.188 363.119 414.46 362.797 413.701 362.797H164.163C163.404 362.797 162.676 363.119 162.139 363.693C161.602 364.266 161.301 365.044 161.301 365.855C161.305 366.663 161.608 367.437 162.144 368.007C162.681 368.577 163.407 368.897 164.163 368.896Z" fill="#4EA0E5"/>
</svg>
