<svg width="155" height="65" viewBox="0 0 155 65" fill="none" xmlns="http://www.w3.org/2000/svg">
<path d="M103.454 24.0109C103.335 24.0098 103.218 23.984 103.109 23.935C103 23.886 102.901 23.8148 102.818 23.7254C102.736 23.636 102.67 23.5302 102.626 23.414C102.582 23.2979 102.559 23.1737 102.561 23.0484C102.561 22.5171 102.961 22.0859 103.454 22.0859H104.381L105.292 23.0484L104.381 24.0109H103.454ZM92.5461 38.5448C92.5461 35.5609 90.6596 33.6196 87.9941 33.6359C85.2627 33.6533 83.4419 35.7351 83.4419 38.4484V40.3782H85.2627V38.4484C85.2627 36.3454 86.1731 35.5609 87.9941 35.5609C89.9021 35.5609 90.7252 36.4407 90.7252 38.4484V41.9346C90.7252 45.3236 93.0769 48.0734 96.1877 48.0734C99.2986 48.0734 101.65 45.3139 101.65 41.9346V37.433C105.082 37.021 107.113 34.2567 107.106 30.2671L107.106 30.1806C107.109 30.0746 107.113 29.8985 107.113 29.7859L106.202 28.8234C106.202 28.8234 105.288 29.8677 105.288 29.7859C105.275 33.6359 103.464 35.5609 100.736 35.5609C98.0086 35.5609 96.1877 33.6359 96.1877 29.7859C96.1877 29.9168 95.2774 28.8234 95.2774 28.8234L94.3669 29.7859V30.2671C94.3669 34.2587 96.3935 37.0239 99.8294 37.433V41.9346C99.8294 44.134 98.207 46.1484 96.1877 46.1484C94.1685 46.1484 92.5461 44.134 92.5461 41.9346V38.5448ZM98.9191 23.0484C98.9191 23.5797 98.5184 24.0109 98.0259 24.0109H97.0981L96.1877 23.0484L97.0981 22.0859H98.0259C98.1443 22.0871 98.2614 22.1129 98.3704 22.1619C98.4794 22.2109 98.5782 22.2821 98.6611 22.3715C98.7441 22.4609 98.8096 22.5667 98.8537 22.6828C98.898 22.799 98.9201 22.9232 98.9191 23.0484Z" fill="#8AD1F2"/>
<path d="M104.747 22.0859H104.381V24.0109H104.836C105.277 24.0109 105.291 24.2516 105.291 24.4922V29.7859H107.112V24.599C107.113 23.9344 106.865 23.2964 106.421 22.8253C105.978 22.3541 105.376 22.0882 104.747 22.0859ZM84.3518 43.2609C83.9931 43.2609 83.638 43.1863 83.3067 43.0411C82.9753 42.8961 82.6742 42.6833 82.4205 42.4152C82.1669 42.1471 81.9658 41.8287 81.8285 41.4785C81.6913 41.1282 81.6206 40.7527 81.6206 40.3734C81.6206 39.9942 81.6913 39.6187 81.8285 39.2684C81.9658 38.9181 82.1669 38.5998 82.4205 38.3317C82.6742 38.0636 82.9753 37.8508 83.3067 37.7057C83.638 37.5606 83.9931 37.4859 84.3518 37.4859C85.0763 37.4859 85.7709 37.7902 86.2832 38.3317C86.7953 38.8732 87.0831 39.6076 87.0831 40.3734C87.0831 41.1392 86.7953 41.8737 86.2832 42.4152C85.7709 42.9567 85.0763 43.2609 84.3518 43.2609ZM97.0976 22.0859H96.7318C96.1029 22.0882 95.5008 22.3541 95.0574 22.8253C94.6139 23.2964 94.3655 23.9344 94.3664 24.599V29.7859H96.1873V24.4922C96.1873 24.2516 96.2018 24.0109 96.6425 24.0109H97.0976V22.0859Z" fill="#00A6ED"/>
<path d="M84.3521 41.817C83.9897 41.817 83.6424 41.665 83.3864 41.3942C83.1303 41.1235 82.9863 40.7563 82.9863 40.3734C82.9863 39.9905 83.1303 39.6232 83.3864 39.3525C83.6424 39.0817 83.9897 38.9297 84.3521 38.9297C84.7142 38.9297 85.0615 39.0817 85.3176 39.3525C85.5737 39.6232 85.7177 39.9905 85.7177 40.3734C85.7177 40.7563 85.5737 41.1235 85.3176 41.3942C85.0615 41.665 84.7142 41.817 84.3521 41.817Z" fill="#8AD1F2"/>
<path d="M29.9388 35.9992L24.4863 29.9036V35.9992H21.481V22.3184H24.4863V28.4532L29.9388 22.3184H33.5667L27.3843 29.1L33.7384 35.9992H29.9388ZM38.7205 21.4952V35.9992H35.7152V21.4952H38.7205ZM43.214 23.8472C42.6845 23.8472 42.2408 23.697 41.883 23.3964C41.5396 23.0828 41.3678 22.6974 41.3678 22.24C41.3678 21.7827 41.5396 21.4038 41.883 21.1032C42.2408 20.7896 42.6845 20.6328 43.214 20.6328C43.7434 20.6328 44.18 20.7896 44.5234 21.1032C44.8812 21.4038 45.0601 21.7827 45.0601 22.24C45.0601 22.6974 44.8812 23.0828 44.5234 23.3964C44.18 23.697 43.7434 23.8472 43.214 23.8472ZM44.6952 25.1408V35.9992H41.6898V25.1408H44.6952ZM54.2547 24.984C55.6715 24.984 56.8163 25.3956 57.6894 26.2188C58.5623 27.029 58.9989 28.1658 58.9989 29.6292V35.9992H55.9935V30.0016C55.9935 29.1392 55.7574 28.4794 55.2851 28.022C54.8129 27.5516 54.1689 27.3164 53.3531 27.3164C52.523 27.3164 51.8647 27.5516 51.3782 28.022C50.9059 28.4794 50.6698 29.1392 50.6698 30.0016V35.9992H47.6645V25.1408H50.6698V26.4932C51.0705 26.0228 51.5785 25.657 52.1939 25.3956C52.8235 25.1212 53.5105 24.984 54.2547 24.984ZM63.3808 23.8472C62.8514 23.8472 62.4078 23.697 62.0499 23.3964C61.7064 23.0828 61.5347 22.6974 61.5347 22.24C61.5347 21.7827 61.7064 21.4038 62.0499 21.1032C62.4078 20.7896 62.8514 20.6328 63.3808 20.6328C63.9104 20.6328 64.3468 20.7896 64.6903 21.1032C65.0482 21.4038 65.227 21.7827 65.227 22.24C65.227 22.6974 65.0482 23.0828 64.6903 23.3964C64.3468 23.697 63.9104 23.8472 63.3808 23.8472ZM64.862 25.1408V35.9992H61.8567V25.1408H64.862ZM74.8724 35.9992L70.8367 31.3736V35.9992H67.8313V21.4952H70.8367V29.7468L74.8295 25.1408H78.7364L73.4985 30.5896L78.7793 35.9992H74.8724Z" fill="#8AD1F2"/>
<path d="M85.5413 36.139C84.4967 36.139 83.5521 35.9756 82.7077 35.649C81.8777 35.3224 81.2193 34.852 80.7328 34.2378C80.2462 33.6236 79.9957 32.8984 79.9814 32.0622H83.2014C83.2444 32.624 83.459 33.0684 83.8454 33.395C84.2461 33.7216 84.79 33.885 85.4769 33.885C86.1781 33.885 86.7292 33.7348 87.1298 33.4342C87.5305 33.1206 87.7309 32.7156 87.7309 32.219C87.7309 31.814 87.5949 31.4808 87.323 31.2194C87.0512 30.958 86.7077 30.7556 86.2926 30.6118C85.892 30.455 85.3338 30.2852 84.6182 30.1022C83.645 29.8408 82.8508 29.586 82.2354 29.3378C81.6344 29.0764 81.112 28.691 80.6684 28.1814C80.239 27.6587 80.0244 26.9662 80.0244 26.1038C80.0244 25.2937 80.2462 24.5881 80.6898 23.987C81.1334 23.3859 81.756 22.9286 82.5574 22.615C83.3589 22.2883 84.2748 22.125 85.3052 22.125C86.8508 22.125 88.103 22.4713 89.0618 23.1638C90.035 23.8433 90.5717 24.7971 90.6718 26.0254H87.366C87.3373 25.555 87.1156 25.1695 86.7005 24.869C86.2999 24.5554 85.7632 24.3986 85.0905 24.3986C84.5037 24.3986 84.0314 24.5358 83.6737 24.8102C83.3302 25.0846 83.1585 25.4831 83.1585 26.0058C83.1585 26.3717 83.2873 26.6787 83.5449 26.927C83.8168 27.1622 84.146 27.3582 84.5324 27.515C84.933 27.6587 85.4912 27.8286 86.2068 28.0246C87.18 28.2859 87.9742 28.5473 88.5896 28.8086C89.2049 29.07 89.7345 29.462 90.1781 29.9846C90.6217 30.5072 90.8436 31.1932 90.8436 32.0426C90.8436 32.7744 90.6361 33.4538 90.221 34.081C89.806 34.7082 89.1979 35.2112 88.3964 35.5902C87.5949 35.956 86.6433 36.139 85.5413 36.139ZM115.385 24.9866C116.802 24.9866 117.946 25.3982 118.819 26.2214C119.692 27.0315 120.129 28.1683 120.129 29.6318V36.0018H117.124V30.0042C117.124 29.1418 116.887 28.4819 116.415 28.0246C115.943 27.5542 115.299 27.319 114.483 27.319C113.653 27.319 112.995 27.5542 112.508 28.0246C112.036 28.4819 111.8 29.1418 111.8 30.0042V36.0018H108.794V25.1434H111.8V26.4958C112.2 26.0254 112.708 25.6595 113.324 25.3982C113.954 25.1238 114.64 24.9866 115.385 24.9866ZM122.214 30.5726C122.214 29.4488 122.464 28.4689 122.965 27.6326C123.466 26.7833 124.16 26.1299 125.047 25.6726C125.935 25.2022 126.951 24.967 128.096 24.967C129.57 24.967 130.786 25.3067 131.745 25.9862C132.718 26.6526 133.369 27.5934 133.699 28.8086H130.457C130.285 28.3382 129.992 27.9723 129.577 27.711C129.176 27.4366 128.675 27.2994 128.074 27.2994C127.216 27.2994 126.536 27.5869 126.035 28.1618C125.534 28.7237 125.284 29.5272 125.284 30.5726C125.284 31.6048 125.534 32.4084 126.035 32.9834C126.536 33.5452 127.216 33.8262 128.074 33.8262C129.291 33.8262 130.085 33.3296 130.457 32.3366H133.699C133.369 33.5126 132.718 34.4468 131.745 35.1394C130.772 35.832 129.555 36.1782 128.096 36.1782C126.951 36.1782 125.935 35.9496 125.047 35.4922C124.16 35.0218 123.466 34.3684 122.965 33.5322C122.464 32.6828 122.214 31.6964 122.214 30.5726Z" fill="#343F52"/>
</svg>
