<svg width="115" height="35" viewBox="0 0 115 35" fill="none" xmlns="http://www.w3.org/2000/svg">
<path d="M83.4537 9.01094C83.3354 9.0098 83.2182 8.984 83.1092 8.935C83.0002 8.88602 82.9014 8.81478 82.8185 8.72539C82.7355 8.636 82.67 8.53021 82.6259 8.41405C82.5816 8.29789 82.5595 8.17365 82.5607 8.04844C82.5607 7.51714 82.9612 7.08594 83.4537 7.08594H84.3814L85.2919 8.04844L84.3814 9.01094H83.4537ZM72.5461 23.5448C72.5461 20.5609 70.6596 18.6196 67.9941 18.6359C65.2627 18.6533 63.4419 20.7351 63.4419 23.4484V25.3782H65.2627V23.4484C65.2627 21.3454 66.1731 20.5609 67.9941 20.5609C69.9021 20.5609 70.7252 21.4407 70.7252 23.4484V26.9346C70.7252 30.3236 73.0769 33.0734 76.1877 33.0734C79.2986 33.0734 81.6502 30.3139 81.6502 26.9346V22.433C85.0824 22.021 87.1127 19.2567 87.1055 15.2671L87.1063 15.1806C87.109 15.0746 87.1127 14.8985 87.1127 14.7859L86.2024 13.8234C86.2024 13.8234 85.2882 14.8677 85.2882 14.7859C85.2746 18.6359 83.4639 20.5609 80.7362 20.5609C78.0086 20.5609 76.1877 18.6359 76.1877 14.7859C76.1877 14.9168 75.2774 13.8234 75.2774 13.8234L74.3669 14.7859V15.2671C74.3669 19.2587 76.3935 22.0239 79.8294 22.433V26.9346C79.8294 29.134 78.207 31.1484 76.1877 31.1484C74.1685 31.1484 72.5461 29.134 72.5461 26.9346V23.5448ZM78.9191 8.04844C78.9191 8.57974 78.5184 9.01094 78.0259 9.01094H77.0981L76.1877 8.04844L77.0981 7.08594H78.0259C78.1443 7.08707 78.2614 7.11287 78.3704 7.16187C78.4794 7.21086 78.5782 7.28209 78.6611 7.37148C78.7441 7.46087 78.8096 7.56667 78.8537 7.68283C78.898 7.79899 78.9201 7.92322 78.9191 8.04844Z" fill="#8AD1F2"/>
<path d="M84.747 7.08594H84.3809V9.01094H84.8362C85.2769 9.01094 85.2914 9.25157 85.2914 9.49219V14.7859H87.1123V9.59902C87.1132 8.93437 86.8648 8.29645 86.4214 7.82529C85.9779 7.35414 85.3758 7.08823 84.747 7.08594ZM64.3518 28.2609C63.9931 28.2609 63.638 28.1863 63.3067 28.0411C62.9753 27.8961 62.6742 27.6833 62.4205 27.4152C62.1669 27.1471 61.9658 26.8287 61.8285 26.4785C61.6913 26.1282 61.6206 25.7527 61.6206 25.3734C61.6206 24.9942 61.6913 24.6187 61.8285 24.2684C61.9658 23.9181 62.1669 23.5998 62.4205 23.3317C62.6742 23.0636 62.9753 22.8508 63.3067 22.7057C63.638 22.5606 63.9931 22.4859 64.3518 22.4859C65.0763 22.4859 65.7709 22.7902 66.2832 23.3317C66.7953 23.8732 67.0831 24.6076 67.0831 25.3734C67.0831 26.1392 66.7953 26.8737 66.2832 27.4152C65.7709 27.9567 65.0763 28.2609 64.3518 28.2609ZM77.0976 7.08594H76.7318C76.1029 7.08823 75.5008 7.35414 75.0574 7.82529C74.6139 8.29645 74.3655 8.93437 74.3664 9.59902V14.7859H76.1873V9.49219C76.1873 9.25157 76.2018 9.01094 76.6425 9.01094H77.0976V7.08594Z" fill="#00A6ED"/>
<path d="M64.3521 26.817C63.9897 26.817 63.6424 26.665 63.3864 26.3942C63.1303 26.1235 62.9863 25.7563 62.9863 25.3734C62.9863 24.9905 63.1303 24.6232 63.3864 24.3525C63.6424 24.0817 63.9897 23.9297 64.3521 23.9297C64.7142 23.9297 65.0615 24.0817 65.3176 24.3525C65.5737 24.6232 65.7177 24.9905 65.7177 25.3734C65.7177 25.7563 65.5737 26.1235 65.3176 26.3942C65.0615 26.665 64.7142 26.817 64.3521 26.817Z" fill="#8AD1F2"/>
<path d="M9.93882 20.9992L4.48629 14.9036V20.9992H1.48096V7.31841H4.48629V13.4532L9.93882 7.31841H13.5667L7.38429 14.1L13.7384 20.9992H9.93882ZM18.7205 6.49521V20.9992H15.7152V6.49521H18.7205ZM23.214 8.84721C22.6845 8.84721 22.2408 8.69695 21.883 8.39641C21.5396 8.08281 21.3678 7.69735 21.3678 7.24001C21.3678 6.78267 21.5396 6.40375 21.883 6.10321C22.2408 5.78961 22.6845 5.63281 23.214 5.63281C23.7434 5.63281 24.18 5.78961 24.5234 6.10321C24.8812 6.40375 25.0601 6.78267 25.0601 7.24001C25.0601 7.69735 24.8812 8.08281 24.5234 8.39641C24.18 8.69695 23.7434 8.84721 23.214 8.84721ZM24.6952 10.1408V20.9992H21.6898V10.1408H24.6952ZM34.2547 9.98401C35.6715 9.98401 36.8163 10.3956 37.6894 11.2188C38.5623 12.029 38.9989 13.1658 38.9989 14.6292V20.9992H35.9935V15.0016C35.9935 14.1392 35.7574 13.4794 35.2851 13.022C34.8129 12.5516 34.1689 12.3164 33.3531 12.3164C32.523 12.3164 31.8647 12.5516 31.3782 13.022C30.9059 13.4794 30.6698 14.1392 30.6698 15.0016V20.9992H27.6645V10.1408H30.6698V11.4932C31.0705 11.0228 31.5785 10.657 32.1939 10.3956C32.8235 10.1212 33.5105 9.98401 34.2547 9.98401ZM43.3808 8.84721C42.8514 8.84721 42.4078 8.69695 42.0499 8.39641C41.7064 8.08281 41.5347 7.69735 41.5347 7.24001C41.5347 6.78267 41.7064 6.40375 42.0499 6.10321C42.4078 5.78961 42.8514 5.63281 43.3808 5.63281C43.9104 5.63281 44.3468 5.78961 44.6903 6.10321C45.0482 6.40375 45.227 6.78267 45.227 7.24001C45.227 7.69735 45.0482 8.08281 44.6903 8.39641C44.3468 8.69695 43.9104 8.84721 43.3808 8.84721ZM44.862 10.1408V20.9992H41.8567V10.1408H44.862ZM54.8724 20.9992L50.8367 16.3736V20.9992H47.8313V6.49521H50.8367V14.7468L54.8295 10.1408H58.7364L53.4985 15.5896L58.7793 20.9992H54.8724Z" fill="#8AD1F2"/>
<path d="M65.5413 21.139C64.4967 21.139 63.5521 20.9756 62.7077 20.649C61.8777 20.3224 61.2193 19.852 60.7328 19.2378C60.2462 18.6236 59.9957 17.8984 59.9814 17.0622H63.2014C63.2444 17.624 63.459 18.0684 63.8454 18.395C64.2461 18.7216 64.79 18.885 65.4769 18.885C66.1781 18.885 66.7292 18.7348 67.1298 18.4342C67.5305 18.1206 67.7309 17.7156 67.7309 17.219C67.7309 16.814 67.5949 16.4808 67.323 16.2194C67.0512 15.958 66.7077 15.7556 66.2926 15.6118C65.892 15.455 65.3338 15.2852 64.6182 15.1022C63.645 14.8408 62.8508 14.586 62.2354 14.3378C61.6344 14.0764 61.112 13.691 60.6684 13.1814C60.239 12.6587 60.0244 11.9662 60.0244 11.1038C60.0244 10.2937 60.2462 9.58806 60.6898 8.987C61.1334 8.38594 61.756 7.9286 62.5574 7.615C63.3589 7.28834 64.2748 7.125 65.3052 7.125C66.8508 7.125 68.103 7.47126 69.0618 8.1638C70.035 8.84326 70.5717 9.79714 70.6718 11.0254H67.366C67.3373 10.555 67.1156 10.1695 66.7005 9.869C66.2999 9.5554 65.7632 9.3986 65.0905 9.3986C64.5037 9.3986 64.0314 9.5358 63.6737 9.8102C63.3302 10.0846 63.1585 10.4831 63.1585 11.0058C63.1585 11.3717 63.2873 11.6787 63.5449 11.927C63.8168 12.1622 64.146 12.3582 64.5324 12.515C64.933 12.6587 65.4912 12.8286 66.2068 13.0246C67.18 13.2859 67.9742 13.5473 68.5896 13.8086C69.2049 14.07 69.7345 14.462 70.1781 14.9846C70.6217 15.5072 70.8436 16.1932 70.8436 17.0426C70.8436 17.7744 70.6361 18.4538 70.221 19.081C69.806 19.7082 69.1979 20.2112 68.3964 20.5902C67.5949 20.956 66.6433 21.139 65.5413 21.139ZM95.3847 9.9866C96.8015 9.9866 97.9463 10.3982 98.8194 11.2214C99.6923 12.0315 100.129 13.1683 100.129 14.6318V21.0018H97.1235V15.0042C97.1235 14.1418 96.8874 13.4819 96.4151 13.0246C95.9429 12.5542 95.2989 12.319 94.4831 12.319C93.653 12.319 92.9947 12.5542 92.5082 13.0246C92.0359 13.4819 91.7998 14.1418 91.7998 15.0042V21.0018H88.7945V10.1434H91.7998V11.4958C92.2005 11.0254 92.7084 10.6595 93.3239 10.3982C93.9535 10.1238 94.6404 9.9866 95.3847 9.9866ZM102.214 15.5726C102.214 14.4488 102.464 13.4689 102.965 12.6326C103.466 11.7833 104.16 11.1299 105.047 10.6726C105.935 10.2022 106.951 9.967 108.096 9.967C109.57 9.967 110.786 10.3067 111.745 10.9862C112.718 11.6526 113.369 12.5934 113.699 13.8086H110.457C110.285 13.3382 109.992 12.9723 109.577 12.711C109.176 12.4366 108.675 12.2994 108.074 12.2994C107.216 12.2994 106.536 12.5869 106.035 13.1618C105.534 13.7237 105.284 14.5272 105.284 15.5726C105.284 16.6048 105.534 17.4084 106.035 17.9834C106.536 18.5452 107.216 18.8262 108.074 18.8262C109.291 18.8262 110.085 18.3296 110.457 17.3366H113.699C113.369 18.5126 112.718 19.4468 111.745 20.1394C110.772 20.832 109.555 21.1782 108.096 21.1782C106.951 21.1782 105.935 20.9496 105.047 20.4922C104.16 20.0218 103.466 19.3684 102.965 18.5322C102.464 17.6828 102.214 16.6964 102.214 15.5726Z" fill="#343F52"/>
</svg>
